<svg width="37" height="36" viewBox="0 0 37 36" fill="none" xmlns="http://www.w3.org/2000/svg">
<path d="M27.6939 33.1203H8.97387C5.79271 33.1203 3.21387 30.6014 3.21387 27.4942V2.88025H24.8139C26.4044 2.88025 27.6939 4.13969 27.6939 5.69327V33.1203Z" fill="#1BB6F9"/>
<path d="M27.6939 33.1203H8.97387C5.79271 33.1203 3.21387 30.6014 3.21387 27.4942V2.88025H24.8139C26.4044 2.88025 27.6939 4.13969 27.6939 5.69327V33.1203Z" fill="url(#paint0_linear_36_615)" fill-opacity="0.2"/>
<path d="M8.97363 33.1202H27.6936C28.4501 33.1202 29.1991 32.9713 29.8979 32.6817C30.5967 32.3923 31.2317 31.968 31.7666 31.4332C32.3014 30.8983 32.7257 30.2633 33.0152 29.5645C33.3047 28.8657 33.4536 28.1167 33.4536 27.3602H14.7336C14.7336 30.5414 12.1548 33.1202 8.97363 33.1202Z" fill="#102E7A"/>
<path d="M8.97363 33.1202H27.6936C28.4501 33.1202 29.1991 32.9713 29.8979 32.6817C30.5967 32.3923 31.2317 31.968 31.7666 31.4332C32.3014 30.8983 32.7257 30.2633 33.0152 29.5645C33.3047 28.8657 33.4536 28.1167 33.4536 27.3602H14.7336C14.7336 30.5414 12.1548 33.1202 8.97363 33.1202Z" fill="url(#paint1_linear_36_615)" fill-opacity="0.3"/>
<path d="M27.6939 5.76025C17.1875 5.76025 8.0288 11.5304 3.21387 20.0745V2.88025H24.8139C26.4044 2.88025 27.6939 4.16968 27.6939 5.76025Z" fill="#0382F3"/>
<path d="M27.6939 5.76025C17.1875 5.76025 8.0288 11.5304 3.21387 20.0745V2.88025H24.8139C26.4044 2.88025 27.6939 4.16968 27.6939 5.76025Z" fill="url(#paint2_linear_36_615)" fill-opacity="0.2"/>
<path d="M15.0399 24.4803H15.8903V23.251C18.2159 23.1086 19.7738 21.9617 19.7738 20.0578V20.0428C19.7738 18.3638 18.6975 17.5243 16.5752 17.0596L15.8903 16.9172V14.7434C16.6354 14.8633 17.1246 15.2756 17.23 15.9727L17.2375 15.9876L19.6007 15.9802L19.6082 15.9727C19.5255 14.1512 18.1632 12.9369 15.8903 12.7795V11.5203H15.0399V12.7721C12.8272 12.877 11.2391 14.0163 11.2391 15.8902V15.9052C11.2391 17.5917 12.353 18.4987 14.3625 18.9409L15.0399 19.0834V21.3021C14.1593 21.2197 13.6475 20.8523 13.5271 20.1927L13.5196 20.1778L11.1488 20.1852L11.1338 20.1927C11.194 22.1116 12.7444 23.1685 15.0399 23.2585V24.4803ZM13.7604 15.7028V15.6878C13.7604 15.1482 14.197 14.8034 15.0399 14.7284V16.7223C14.1668 16.4899 13.7604 16.1975 13.7604 15.7028ZM17.2526 20.3277V20.3426C17.2526 20.9198 16.7633 21.2272 15.8903 21.3021V19.2708C16.8687 19.5182 17.2526 19.773 17.2526 20.3277Z" fill="black"/>
<defs>
<linearGradient id="paint0_linear_36_615" x1="3.21387" y1="2.88025" x2="32.6099" y2="8.82947" gradientUnits="userSpaceOnUse">
<stop stop-color="white"/>
<stop offset="1" stop-color="white" stop-opacity="0"/>
</linearGradient>
<linearGradient id="paint1_linear_36_615" x1="8.97363" y1="27.3602" x2="23.3472" y2="42.6322" gradientUnits="userSpaceOnUse">
<stop stop-color="white"/>
<stop offset="1" stop-color="white" stop-opacity="0"/>
</linearGradient>
<linearGradient id="paint2_linear_36_615" x1="3.21387" y1="2.88025" x2="30.3731" y2="12.5471" gradientUnits="userSpaceOnUse">
<stop stop-color="white"/>
<stop offset="1" stop-color="white" stop-opacity="0"/>
</linearGradient>
</defs>
</svg>
