<svg width="37" height="36" viewBox="0 0 37 36" fill="none" xmlns="http://www.w3.org/2000/svg">
<g clip-path="url(#clip0_36_647)">
<path d="M33.6943 6.48022C36.2287 6.50974 37.6572 9.7015 35.8637 11.4943L29.7984 17.556L26.9458 19.4402L18.6658 6.48022H33.6943ZM8.54688 18.569C8.28124 18.8346 8.07052 19.1499 7.92675 19.4969C7.78298 19.8439 7.70898 20.2159 7.70898 20.5915C7.70898 20.9671 7.78298 21.3391 7.92675 21.6861C8.07052 22.0331 8.28124 22.3484 8.54688 22.614L14.6186 28.6836C15.1556 29.2203 15.8837 29.5218 16.6429 29.5218C17.4021 29.5218 18.1302 29.2203 18.6672 28.6836L17.5858 25.9202L11.4658 19.4402L8.54616 18.5676L8.54688 18.569Z" fill="#985184"/>
<path d="M1.46796 11.4943C-0.325558 9.7015 1.10364 6.50974 3.63804 6.48022H18.6659L29.7978 17.556C30.0637 17.8216 30.2746 18.137 30.4185 18.4841C30.5624 18.8313 30.6364 19.2034 30.6364 19.5792C30.6364 19.955 30.5624 20.3271 30.4185 20.6742C30.2746 21.0214 30.0637 21.3368 29.7978 21.6024L22.713 28.6821C22.1761 29.2184 21.4483 29.5196 20.6894 29.5196C19.9306 29.5196 19.2028 29.2184 18.6659 28.6821L1.46796 11.4943Z" fill="#1AD3BB"/>
<path d="M18.666 28.6829C18.9318 28.4173 19.1427 28.1019 19.2866 27.7547C19.4305 27.4076 19.5046 27.0355 19.5046 26.6597C19.5046 26.2839 19.4305 25.9118 19.2866 25.5646C19.1427 25.2175 18.9318 24.9021 18.666 24.6365L12.5935 18.5683C12.0565 18.0316 11.3284 17.7301 10.5692 17.7301C9.81 17.7301 9.08188 18.0316 8.54492 18.5683L18.666 28.6829ZM13.3524 11.7405L18.666 6.48022L25.2439 13.0049C24.4384 12.2002 23.3465 11.7482 22.208 11.7482C21.0695 11.7482 19.9776 12.2002 19.1721 13.0049L16.8948 15.2801C16.4249 15.7496 15.7878 16.0134 15.1236 16.0134C14.4593 16.0134 13.8222 15.7496 13.3524 15.2801C13.1199 15.0477 12.9354 14.7718 12.8096 14.4682C12.6837 14.1645 12.619 13.839 12.619 13.5103C12.619 13.1816 12.6837 12.8561 12.8096 12.5525C12.9354 12.2488 13.1199 11.9729 13.3524 11.7405Z" fill="#005E7A"/>
</g>
<defs>
<clipPath id="clip0_36_647">
<rect width="36" height="36" fill="white" transform="translate(0.666016 0.000244141)"/>
</clipPath>
</defs>
</svg>
