<svg width="444" height="730" viewBox="0 0 444 730" fill="none" xmlns="http://www.w3.org/2000/svg">
<path d="M249.035 729.665L247.659 729.238C264.966 641.305 249.112 541.979 206.289 470.004C163.441 398.029 93.1145 352.486 22.7118 351.206C17.41 351.107 12.0061 351.238 6.75526 351.37C-5.17393 351.665 -17.5365 351.961 -29.5421 349.531C-49.5261 345.525 -65.6356 333.409 -73.7413 316.335C-89.5705 283.04 -73.5629 237.957 -48.7104 216.778C-26.4069 197.766 0.918114 192.48 27.3255 187.358C30.3078 186.766 33.2901 186.208 36.2724 185.584C64.5405 179.937 96.1223 170.349 116.03 142.242C132.802 118.6 138.945 85.5024 144.859 53.488C151.537 17.4349 158.445 -19.866 180.774 -42.7194C202.007 -64.4563 233.461 -68.9876 276.972 -56.6416C281.407 -55.3938 285.868 -54.0476 290.354 -52.7013C318.342 -44.2955 347.273 -35.627 374.725 -45.379C409.671 -57.7908 437.098 -101.33 441.457 -151.273C445.459 -197.275 431.006 -246.265 402.789 -282.351L403.783 -283.665C432.306 -247.152 446.912 -197.603 442.859 -151.076C438.449 -100.411 410.589 -56.2147 375.107 -43.606C347.298 -33.7225 318.189 -42.4567 290.023 -50.9282C285.562 -52.2745 281.101 -53.5879 276.666 -54.8685C233.614 -67.0832 202.516 -62.6504 181.666 -41.2746C159.694 -18.8153 153.168 16.5155 146.235 53.9149C140.27 86.1263 134.102 119.454 117.075 143.49C96.8615 171.991 64.9993 181.677 36.4763 187.39C33.5025 188.003 30.5202 188.594 27.5294 189.163C1.27496 194.253 -25.8716 199.507 -47.9202 218.288C-72.2374 239.007 -87.9391 282.974 -72.5433 315.382C-64.6415 331.997 -48.8888 343.785 -29.3127 347.725C-17.4345 350.155 -5.14845 349.827 6.72977 349.531C11.9807 349.4 17.41 349.268 22.7118 349.367C57.7092 350.024 93.2419 361.417 125.537 382.301C157.807 403.184 186.127 433.13 207.41 468.887C228.694 504.645 243.784 547.659 251.049 593.235C258.339 638.81 257.625 685.994 249.035 729.665Z" fill="white" fill-opacity="0.2"/>
<path d="M236.545 729.403L235.168 728.943C251.278 651.878 242.662 568.083 211.514 499.03C207.792 490.756 203.714 482.678 199.406 475.06C168.181 419.634 120.133 378.426 67.5223 362.008C52.9167 357.444 37.9797 354.818 23.1447 354.128C17.8938 353.898 12.5155 353.898 7.34105 353.898C-4.25678 353.865 -16.2369 353.865 -27.9112 351.304C-39.3561 348.776 -60.2068 341.191 -71.3713 318.502C-87.6082 285.404 -72.7477 242.028 -49.6285 220.784C-28.3701 201.247 -1.68231 194.975 24.1133 188.934C26.4923 188.386 28.8629 187.828 31.2249 187.259C60.1558 180.429 89.6474 170.382 109.325 143.161C125.843 120.275 132.47 88.6218 138.868 58.0193C146.184 23.0168 153.754 -13.1348 176.313 -34.9046C191.632 -49.6805 212.329 -56.0505 239.578 -54.3759C249.748 -53.7521 260.76 -52.1103 273.275 -49.3521C276.742 -48.5969 280.209 -47.8417 283.675 -47.0536C290.048 -45.6089 296.624 -44.1313 302.971 -42.8836C322.904 -38.9433 344.162 -35.8568 365.574 -45.1492C366.874 -45.7074 368.199 -46.3313 369.474 -46.988C387.648 -56.3132 404.344 -73.8473 416.477 -96.4051C425.475 -113.151 431.465 -131.966 433.759 -150.813C434.549 -157.118 434.957 -163.586 435.033 -170.022C435.467 -210.245 421.294 -252.241 397.13 -282.351L398.099 -283.665C422.569 -253.226 436.894 -210.738 436.435 -170.022C436.384 -163.455 435.951 -156.921 435.161 -150.518C432.841 -131.408 426.775 -112.33 417.649 -95.3872C405.363 -72.5338 388.438 -54.7371 370.009 -45.3134C368.684 -44.6238 367.358 -44 366.033 -43.4089C344.315 -33.9852 322.878 -37.1045 302.742 -41.0776C296.395 -42.3253 289.793 -43.8029 283.42 -45.2477C279.979 -46.0358 276.513 -46.8238 273.046 -47.579C260.582 -50.3044 249.621 -51.9461 239.527 -52.5371C212.61 -54.2117 192.218 -47.973 177.179 -33.4598C154.978 -12.0512 147.815 22.196 140.245 58.479C133.796 89.3113 127.143 121.194 110.371 144.409C90.3866 171.991 60.6401 182.17 31.4798 189.065C29.1178 189.634 26.7472 190.192 24.3682 190.74C-1.27448 196.748 -27.8093 202.987 -48.8128 222.294C-71.4732 243.112 -85.4671 286.356 -70.1732 317.517C-59.3146 339.615 -38.8718 347.036 -27.6563 349.498C-16.1095 352.027 -4.18031 352.059 7.34105 352.059C12.541 352.059 17.9193 352.059 23.1957 352.322C38.1327 352.979 53.1716 355.638 67.8537 360.235C120.77 376.752 169.15 418.19 200.553 473.977C204.887 481.66 208.99 489.771 212.737 498.111C244.09 567.59 252.756 651.878 236.545 729.403Z" fill="white" fill-opacity="0.2"/>
<path d="M224.03 729.14L222.679 728.647C239.349 653.553 232.467 571.596 203.765 503.758C200.324 495.615 196.552 487.669 192.524 480.084C163.313 425.019 117.457 383.417 66.7581 365.981C52.6368 361.122 38.1076 358.134 23.604 357.05C18.3786 356.689 13.0512 356.525 7.87682 356.393C-3.33866 356.065 -14.9365 355.77 -26.2539 353.044C-37.4184 350.385 -57.8102 342.668 -68.9747 320.669C-85.1097 288.884 -71.9825 246.165 -50.5711 224.822C-30.1029 204.432 -3.64454 197.142 21.9726 190.083L26.2039 188.933C54.4721 181.086 83.2755 170.25 102.648 144.081C118.885 121.982 125.971 91.7738 132.827 62.5833C140.806 28.6644 149.039 -6.43652 171.878 -27.1227C191.913 -45.3135 217.989 -46.3971 235.832 -45.6419C245.747 -45.215 256.784 -44.0658 269.58 -42.0957L273.48 -41.5046C282.248 -40.1584 290.507 -38.9106 298.485 -38.0569C319.438 -35.7256 337.026 -34.7734 356.449 -44.9523C357.647 -45.5762 358.896 -46.2657 360.12 -47.021C377.656 -57.5282 394.786 -75.8503 407.123 -97.3246C416.783 -114.071 423.156 -131.933 426.087 -150.354C427.081 -156.461 427.718 -162.831 427.999 -169.3C429.783 -209.523 415.789 -252.865 391.446 -282.352L392.415 -283.698C417.064 -253.818 431.236 -209.95 429.426 -169.201C429.12 -162.634 428.483 -156.165 427.489 -149.992C424.507 -131.309 418.032 -113.217 408.27 -96.2411C395.805 -74.5369 378.472 -55.985 360.731 -45.3464C359.482 -44.624 358.208 -43.9016 356.959 -43.2449C337.255 -32.9346 319.514 -33.8868 298.383 -36.2181C290.354 -37.1047 282.07 -38.3524 273.327 -39.6658L269.402 -40.2569C256.657 -42.2598 245.645 -43.4091 235.781 -43.8031C218.142 -44.5583 192.397 -43.5076 172.693 -25.6123C150.262 -5.28729 142.463 27.942 134.204 63.1086C127.296 92.4962 120.134 122.935 103.667 145.328C84.0402 171.859 54.9819 182.826 26.5098 190.707L22.253 191.889C-3.18572 198.883 -29.4911 206.139 -49.7045 226.267C-70.6316 247.118 -83.4784 288.753 -67.7767 319.684C-56.8926 341.092 -36.9341 348.644 -25.999 351.271C-14.809 353.931 -3.26219 354.259 7.90231 354.555C13.0767 354.719 18.4296 354.85 23.6805 355.244C38.2861 356.328 52.9172 359.349 67.115 364.241C118.145 381.775 164.282 423.64 193.697 479.066C197.75 486.684 201.548 494.696 205.014 502.905C233.894 571.136 240.828 653.619 224.03 729.14Z" fill="white" fill-opacity="0.2"/>
<path d="M211.539 728.877L210.188 728.319C227.42 655.228 222.271 575.109 196.042 508.519C192.881 500.475 189.389 492.627 185.642 485.141C158.036 429.583 115.52 388.703 65.9675 369.954C52.356 364.799 38.2602 361.45 24.0369 360.005C18.8625 359.48 13.5351 359.185 8.38622 358.889C-2.44691 358.265 -13.6624 357.641 -24.623 354.817C-35.4816 352.026 -55.3891 344.146 -66.5791 322.836C-82.8415 291.905 -71.677 250.762 -51.4892 228.861C-31.8621 207.518 -6.75468 199.506 19.8566 191.002L21.1821 190.575C46.9267 182.366 76.0869 171.367 95.9435 144.967C111.951 123.723 119.521 94.9261 126.812 67.1146C135.86 32.736 144.374 0.261871 167.417 -19.308C186.687 -35.7256 210.928 -37.433 232.084 -36.9077C243.707 -36.645 255.127 -35.7256 265.858 -34.8062C277.405 -33.8212 286.352 -33.2958 294.024 -33.1973C314.569 -32.9346 329.404 -33.5585 347.298 -44.7225C348.453 -45.4449 349.609 -46.211 350.764 -47.021C368.072 -59.0715 385.201 -77.722 397.767 -98.2112C407.963 -114.793 414.922 -132.163 418.414 -149.894C419.612 -155.87 420.479 -162.141 420.989 -168.577C424.226 -209.293 410.742 -252.898 385.787 -282.352L386.756 -283.698C412.016 -253.85 425.679 -209.654 422.391 -168.38C421.881 -161.879 420.989 -155.476 419.791 -149.434C416.247 -131.473 409.212 -113.874 398.889 -97.0948C386.195 -76.4085 368.913 -57.5939 351.453 -45.412C350.263 -44.6021 349.082 -43.825 347.91 -43.0807C329.735 -31.7525 314.747 -31.0958 293.999 -31.3585C286.326 -31.4899 277.354 -31.9824 265.756 -32.9674C255.05 -33.8868 243.631 -34.8062 232.059 -35.1017C211.106 -35.5943 187.146 -33.9197 168.207 -17.7975C145.572 1.44394 137.109 33.6225 128.162 67.6727C120.796 95.7141 113.2 124.675 96.963 146.248C76.8516 173.008 47.462 184.074 21.5134 192.381L20.188 192.775C-6.24489 201.214 -31.1993 209.193 -50.5715 230.24C-70.2751 251.649 -81.2102 291.741 -65.4066 321.818C-54.497 342.57 -34.9973 350.286 -24.3426 353.011C-13.5095 355.802 -2.34496 356.426 8.46268 357.05C13.6116 357.346 18.939 357.641 24.1644 358.167C38.4641 359.644 52.6619 363.026 66.3754 368.214C116.259 387.062 159.031 428.237 186.84 484.156C190.587 491.675 194.104 499.588 197.291 507.699C223.698 574.683 228.898 655.293 211.539 728.877Z" fill="white" fill-opacity="0.2"/>
<path d="M199.05 728.582L197.699 728.023C215.491 656.836 212.075 578.557 188.293 513.248C185.413 505.367 182.201 497.585 178.76 490.165C153.169 434.968 112.844 393.695 65.1779 373.928C52.0762 368.51 38.3882 364.799 24.4963 362.928C19.3219 362.238 14.02 361.779 8.8966 361.352C-1.57968 360.432 -12.3873 359.513 -22.9911 356.558C-41.2417 351.501 -55.8983 340.271 -64.208 325.003C-80.9292 294.236 -70.6314 254.571 -52.4317 232.867C-33.5693 210.408 -7.16193 200.754 16.1357 192.25C42.4921 182.629 69.8426 171.137 89.2657 145.887C104.967 125.43 112.971 98.144 120.72 71.7116C130.457 38.4495 139.684 6.99326 162.957 -11.5259C182.558 -27.1226 206.977 -28.3047 228.312 -28.1733C235.832 -28.1405 243.351 -27.9763 250.616 -27.7793C254.567 -27.6808 258.416 -27.5823 262.137 -27.5166C272.511 -27.3196 281.713 -27.6151 289.539 -28.3375C308.579 -30.1435 321.375 -32.1136 338.147 -44.4925C339.235 -45.3024 340.331 -46.1561 341.436 -47.0536C358.743 -61.0086 375.872 -79.9874 388.439 -99.0976C399.195 -115.548 406.715 -132.458 410.742 -149.401C412.144 -155.246 413.215 -161.452 413.954 -167.822C418.619 -208.373 405.338 -253.325 380.129 -282.351L381.072 -283.73C406.613 -254.31 420.072 -208.702 415.356 -167.559C414.617 -161.091 413.521 -154.819 412.093 -148.876C408.015 -131.703 400.419 -114.53 389.509 -97.9155C376.866 -78.6412 359.635 -59.5311 342.175 -45.4776C341.053 -44.58 339.949 -43.7263 338.861 -42.9164C321.834 -30.3405 308.885 -28.3375 289.641 -26.5316C281.79 -25.7764 272.537 -25.5137 262.137 -25.7107C258.39 -25.7764 254.541 -25.842 250.59 -25.9406C243.326 -26.1376 235.832 -26.3346 228.312 -26.3674C207.181 -26.4659 182.991 -25.3167 163.721 -9.9826C140.831 8.241 131.706 39.3688 122.046 72.3683C114.246 98.9649 106.191 126.448 90.2598 147.167C70.6072 172.746 43.0783 184.337 16.5435 194.023C-6.62665 202.462 -32.8556 212.05 -51.4631 234.214C-69.2294 255.392 -79.3234 294.039 -63.0354 323.952C-54.9297 338.86 -40.6045 349.794 -22.6852 354.785C-12.2089 357.707 -1.42675 358.626 8.97307 359.513C14.122 359.973 19.4239 360.432 24.6238 361.122C38.6176 362.994 52.4076 366.704 65.6113 372.187C113.608 392.086 154.214 433.655 179.984 489.245C183.45 496.699 186.688 504.514 189.593 512.493C213.503 578.196 216.969 656.968 199.05 728.582Z" fill="white" fill-opacity="0.2"/>
<path d="M186.559 728.319L185.209 727.728C203.587 658.445 201.904 581.972 180.569 518.009C177.944 510.194 175.038 502.544 171.903 495.221C148.35 440.321 110.167 398.653 64.4127 377.901C51.7953 372.187 38.5151 368.116 24.9291 365.85C19.7801 364.996 14.4783 364.373 9.35484 363.782C-0.73909 362.599 -11.1389 361.385 -21.3603 358.331C-39.1266 353.012 -53.5028 341.946 -61.8125 327.17C-78.5847 297.389 -70.2751 259.234 -53.3754 236.906C-36.7306 214.939 -14.3251 204.465 11.1136 193.925C33.8505 184.534 62.1441 172.811 82.5614 146.806C97.9572 127.203 106.369 101.362 114.525 76.3742C125.027 44.1628 134.968 13.7245 158.521 -3.71106C177.358 -17.6989 200.502 -19.1436 224.565 -19.4392L228.796 -19.5049C238.839 -19.6362 249.213 -19.7675 258.441 -20.2272C268.28 -20.7198 277.481 -21.869 285.026 -23.4779C301.646 -27.0898 312.657 -30.0121 328.996 -44.2626C330.016 -45.1382 331.044 -46.0686 332.08 -47.0536C342.684 -56.8714 362.872 -76.8024 379.083 -100.017C390.63 -116.533 398.481 -132.557 403.069 -148.942C404.701 -154.688 406.001 -160.795 406.944 -167.099C413.01 -207.388 399.96 -253.719 374.444 -282.351L375.387 -283.73C401.667 -254.244 414.591 -208.308 408.32 -166.738C407.377 -160.335 406.052 -154.162 404.395 -148.318C399.756 -131.703 391.803 -115.482 380.129 -98.7692C363.841 -75.4562 343.551 -55.4266 332.896 -45.576C331.859 -44.591 330.823 -43.6497 329.786 -42.7522C313.193 -28.2719 302.053 -25.3167 285.281 -21.7048C277.66 -20.0302 268.382 -18.9138 258.492 -18.4213C249.264 -17.9616 238.864 -17.7974 228.821 -17.666L224.59 -17.6332C200.732 -17.3049 177.766 -15.8929 159.209 -2.13495C136.09 15.0051 126.251 45.1807 115.825 77.0966C107.643 102.248 99.1552 128.254 83.5555 148.087C62.9088 174.42 33.2132 186.701 11.547 195.665C-13.6879 206.106 -35.9404 216.515 -52.3558 238.187C-68.8477 259.956 -76.9789 297.126 -60.6655 326.12C-52.5342 340.501 -38.4639 351.337 -21.0289 356.525C-10.9095 359.579 -0.560661 360.794 9.48229 361.943C14.6057 362.567 19.9331 363.191 25.1075 364.044C38.7955 366.343 52.1521 370.414 64.8715 376.193C110.957 397.077 149.421 439.04 173.126 494.335C176.313 501.69 179.244 509.439 181.869 517.287C203.332 581.677 205.04 658.61 186.559 728.319Z" fill="white" fill-opacity="0.2"/>
<path d="M174.044 728.056L172.719 727.432C191.964 659.004 191.989 586.306 172.821 522.737C170.501 515.054 167.876 507.502 165.021 500.245C143.533 445.64 107.516 403.611 63.6227 381.874C51.4896 375.865 38.6173 371.465 25.3626 368.772C20.2137 367.755 14.8864 366.966 9.76292 366.178C0.076828 364.734 -9.91515 363.223 -19.7032 360.071C-37.0107 354.522 -51.1066 343.621 -59.4162 329.37C-76.8512 299.523 -68.9749 262.616 -54.2928 240.977C-38.5911 217.796 -15.8543 205.844 6.09241 195.599L6.78062 195.271C29.9508 184.435 56.2307 172.188 75.8833 147.692C90.9222 128.976 99.7162 104.645 108.255 81.1024C119.547 49.9417 130.227 20.4884 154.06 4.07077C173.407 -9.26038 197.087 -9.98273 219.977 -10.7051H220.818C235.016 -11.1648 245.772 -11.8872 254.719 -12.9379C264.405 -14.12 273.327 -16.0573 280.54 -18.6184C296.93 -24.4303 305.342 -29.1586 319.846 -44.0329C320.797 -44.9961 321.757 -46.003 322.726 -47.0538L324.816 -49.2866C338.682 -64.0296 355.939 -82.3517 369.729 -100.904C381.964 -117.321 390.376 -132.885 395.397 -148.482C397.232 -154.097 398.762 -160.139 399.909 -166.344C407.53 -207.027 395.015 -253.621 368.786 -282.384L369.703 -283.763C396.315 -254.606 409.009 -207.224 401.311 -165.918C400.113 -159.613 398.583 -153.506 396.723 -147.76C391.599 -131.966 383.111 -116.238 370.749 -99.6231C356.908 -81.0383 339.626 -62.6505 325.734 -47.8746L323.644 -45.6419C322.658 -44.5692 321.689 -43.5513 320.738 -42.5882C306.03 -27.5168 297.517 -22.7557 280.923 -16.8781C273.633 -14.2841 264.635 -12.3141 254.872 -11.132C245.874 -10.0484 235.067 -9.35886 220.843 -8.89917L220.002 -8.86633C197.265 -8.17679 173.789 -7.45441 154.723 5.67972C131.323 21.8347 120.745 50.9924 109.53 81.8904C100.965 105.565 92.0948 130.06 76.8519 149.006C56.9954 173.764 30.588 186.11 7.26493 196.978L6.57671 197.306C-15.1915 207.485 -37.7499 219.306 -53.2222 242.159C-67.5474 263.273 -75.2453 299.227 -58.2947 328.254C-50.1634 342.176 -36.348 352.847 -19.3718 358.298C-9.66025 361.417 0.306236 362.928 9.91586 364.372C15.0648 365.128 20.3921 365.949 25.592 366.966C38.9487 369.659 51.8975 374.125 64.1325 380.166C108.357 402.067 144.629 444.425 166.27 499.424C169.15 506.713 171.801 514.331 174.146 522.08C193.442 586.044 193.416 659.201 174.044 728.056Z" fill="white" fill-opacity="0.2"/>
<path d="M161.554 727.794L160.229 727.137C180.085 660.514 181.793 589.623 165.097 527.465C163.058 519.913 160.713 512.46 158.138 505.302C138.715 450.959 104.865 408.536 62.8322 385.847C51.2089 379.575 38.7444 374.814 25.8211 371.728C20.6212 370.48 15.2939 369.495 10.1194 368.543C0.892159 366.835 -8.66648 365.062 -18.0722 361.811C-29.9759 357.74 -46.3658 349.137 -57.046 331.537C-74.4045 302.806 -68.6438 267.377 -55.2362 245.016C-42.0326 222.951 -23.1702 209.981 1.0451 197.274L4.7666 195.336C26.178 184.14 50.4187 171.465 69.1792 148.612C83.8358 130.782 93.0121 107.962 101.857 85.9292C113.99 55.7535 125.46 27.2853 149.625 11.8856C167.901 0.196228 189.873 -0.756012 211.132 -1.70825C213.103 -1.79581 215.082 -1.88336 217.071 -1.97092C230.198 -2.62762 241.617 -3.87537 251.023 -5.64847C260.633 -7.48724 269.299 -10.2783 276.028 -13.7588C290.761 -21.3109 296.981 -27.2541 310.694 -43.7702C311.34 -44.5364 311.986 -45.3245 312.632 -46.1344L313.371 -47.0538C319.259 -54.2447 326.141 -62.0267 333.457 -70.2683C342.582 -80.5786 352.013 -91.2173 360.374 -101.79C373.527 -118.372 382.219 -133.082 387.724 -148.022C389.789 -153.539 391.522 -159.449 392.899 -165.622C401.922 -205.944 389.687 -253.949 363.127 -282.384L364.019 -283.763C391.013 -254.934 403.426 -206.108 394.275 -165.097C392.873 -158.858 391.089 -152.849 389.024 -147.234C383.442 -132.097 374.648 -117.223 361.368 -100.477C352.982 -89.9039 343.525 -79.2324 334.374 -68.8893C327.084 -60.6804 320.202 -52.8985 314.365 -45.7076L313.626 -44.821C312.963 -43.9892 312.309 -43.1902 311.663 -42.424C297.797 -25.7437 291.501 -19.7348 276.564 -12.0514C269.732 -8.53799 260.964 -5.6813 251.227 -3.84253C241.77 -2.06943 230.3 -0.821686 217.122 -0.164978C215.133 -0.055542 213.154 0.0429688 211.182 0.130524C190.077 1.04993 168.258 2.035 150.237 13.5273C126.506 28.6316 115.137 56.8699 103.131 86.7829C94.2101 108.947 84.9828 131.899 70.1478 149.958C51.2089 173.041 26.8152 185.781 5.30189 197.011L1.58038 198.948C-22.4309 211.557 -41.0894 224.396 -54.1147 246.133C-67.1909 267.935 -72.8242 302.478 -55.9245 330.421C-45.4992 347.626 -29.3896 356.032 -17.7153 360.071C-8.3861 363.289 1.12157 365.029 10.3234 366.737C15.4978 367.689 20.8506 368.674 26.076 369.922C39.1268 373.041 51.6677 377.835 63.3675 384.172C105.731 407.025 139.862 449.777 159.438 504.513C162.013 511.737 164.383 519.257 166.423 526.874C183.246 589.426 181.512 660.777 161.554 727.794Z" fill="white" fill-opacity="0.2"/>
<path d="M149.064 727.531L147.739 726.841C168.207 661.992 171.623 592.873 157.348 532.227C155.59 524.773 153.55 517.418 151.256 510.326C133.923 456.279 102.24 413.461 62.0423 389.82C50.9032 383.253 38.8721 378.131 26.2547 374.65C21.0293 373.205 15.6509 372.023 10.451 370.874C1.63159 368.904 -7.46824 366.901 -16.4406 363.585C-27.9875 359.316 -43.995 350.68 -54.6497 333.704C-73.0533 304.35 -66.9868 269.774 -56.1791 249.055C-43.2813 224.396 -23.4758 210.408 -3.97615 198.948C-1.76704 197.657 0.484558 196.343 2.77863 195.008C22.4312 183.614 44.6838 170.71 62.5011 149.531C76.6989 132.621 86.181 111.377 95.3318 90.8217C108.357 61.6311 120.643 34.0823 145.164 19.6676C162.548 9.45587 183.042 8.40515 202.873 7.3544C206.365 7.15741 209.832 6.99323 213.298 6.76337C226.018 5.87683 237.768 4.13657 247.302 1.64108C256.911 -0.854401 265.297 -4.49911 271.542 -8.86621C283.064 -16.9109 287.499 -23.3138 296.369 -36.0867C297.95 -38.3523 299.658 -40.815 301.569 -43.5074L304.042 -47.0537C312.198 -58.5132 323.49 -71.2861 334.4 -83.5994C339.982 -89.9037 345.743 -96.438 351.019 -102.677C360.552 -113.972 372.482 -129.306 380.078 -147.53C382.346 -152.98 384.309 -158.825 385.889 -164.867C396.493 -205.484 384.793 -253.818 357.468 -282.384L358.36 -283.796C386.144 -254.77 398.022 -205.615 387.24 -164.309C385.634 -158.135 383.621 -152.192 381.327 -146.676C373.629 -128.19 361.598 -112.724 351.988 -101.33C346.712 -95.0589 340.925 -88.5575 335.343 -82.2531C324.459 -69.9399 313.193 -57.1998 305.087 -45.8059L302.614 -42.2925C300.703 -39.6001 298.995 -37.1374 297.414 -34.8718C288.748 -22.3615 283.956 -15.4661 272.205 -7.25729C265.858 -2.79169 257.345 0.885864 247.582 3.41418C237.972 5.9425 226.145 7.71561 213.375 8.56931C209.908 8.79916 206.416 8.99619 202.949 9.16034C183.246 10.2111 162.88 11.2946 145.751 21.3423C121.637 35.4943 109.453 62.8132 96.5554 91.7411C87.3536 112.395 77.8204 133.77 63.4442 150.878C45.4994 172.253 23.0939 185.223 3.33941 196.683C1.06232 197.996 -1.18077 199.299 -3.38988 200.59C-22.7111 211.951 -42.3127 225.775 -55.0066 250.073C-65.5339 270.267 -71.473 303.988 -53.5282 332.555C-43.1284 349.137 -27.4012 357.641 -16.0583 361.811C-7.16236 365.095 1.91198 367.131 10.6805 369.068C15.9058 370.217 21.3097 371.399 26.5606 372.844C39.2799 376.39 51.413 381.545 62.6285 388.145C103.157 411.984 135.096 455.129 152.582 509.636C154.876 516.761 156.941 524.182 158.699 531.668C173.076 592.742 169.66 662.287 149.064 727.531Z" fill="white" fill-opacity="0.2"/>
<path d="M136.574 727.235L135.249 726.513C156.38 663.436 161.478 596.091 149.625 536.955C148.147 529.6 146.362 522.343 144.374 515.349C129.157 461.532 99.6398 418.387 61.2522 393.793C50.623 386.963 38.9997 381.48 26.6881 377.572C21.4118 375.898 15.9569 374.486 10.6806 373.107C2.31994 370.94 -6.29559 368.707 -14.8092 365.325C-26.0246 360.892 -41.6244 352.191 -52.2536 335.871C-70.5297 307.83 -66.7317 274.732 -57.0966 253.127C-47.8439 232.375 -33.4676 216.647 -9.02298 200.623C-5.81128 198.521 -2.49762 196.387 0.867027 194.253C18.7863 182.826 39.0507 169.889 55.7974 150.451C69.5364 134.493 79.2225 114.857 88.6027 95.8455C102.571 67.5743 115.775 40.8792 140.704 27.4824C157.298 18.5841 176.517 17.4677 195.099 16.4169C199.84 16.1543 204.734 15.8916 209.552 15.4647C222.143 14.414 233.92 12.1483 243.606 8.93048C253.215 5.74548 261.321 1.27988 267.031 -3.94095C275.493 -11.6901 278.986 -18.3885 283.803 -27.648C286.123 -32.1136 288.774 -37.1703 292.419 -43.2776L292.597 -43.5732C293.26 -44.6895 293.974 -45.8388 294.687 -47.0209C304.093 -62.2236 318.699 -78.2801 332.845 -93.8111C335.853 -97.1275 338.81 -100.378 341.69 -103.563C352.982 -116.172 364.529 -130.193 372.405 -147.07C374.903 -152.422 377.096 -158.168 378.88 -164.144C390.885 -204.368 379.492 -254.08 351.784 -282.384L352.676 -283.796C380.842 -255.032 392.415 -204.433 380.205 -163.488C378.37 -157.413 376.178 -151.568 373.629 -146.118C365.651 -129.011 354.002 -114.891 342.608 -102.184C339.728 -98.9991 336.771 -95.7156 333.763 -92.4321C319.667 -76.9338 305.113 -60.943 295.809 -45.9044C295.07 -44.7224 294.381 -43.5731 293.719 -42.4567L293.54 -42.1612C289.921 -36.0867 287.295 -31.0629 284.976 -26.6302C280.082 -17.2064 276.513 -10.4095 267.847 -2.46335C262.009 2.88879 253.751 7.45288 243.963 10.7036C234.2 13.9543 222.322 16.2199 209.653 17.3035C204.81 17.6975 199.916 17.993 195.15 18.2557C176.695 19.3064 157.603 20.39 141.264 29.157C116.743 42.3568 103.667 68.8221 89.8007 96.8306C80.3695 115.941 70.6069 135.675 56.7405 151.797C39.8663 171.4 19.4745 184.402 1.50427 195.895C-1.86037 198.029 -5.17403 200.163 -8.38574 202.232C-32.5755 218.124 -46.7733 233.59 -55.8731 254.046C-65.2788 275.126 -68.9748 307.37 -51.1575 334.689C-40.7577 350.68 -25.4129 359.217 -14.3758 363.584C-5.93872 366.934 2.65131 369.167 10.961 371.301C16.2628 372.68 21.7431 374.125 27.045 375.799C39.433 379.739 51.1583 385.256 61.8895 392.151C100.583 416.942 130.355 460.481 145.725 514.725C147.713 521.785 149.498 529.107 150.976 536.495C162.931 596.026 157.807 663.765 136.574 727.235Z" fill="white" fill-opacity="0.2"/>
<path d="M124.059 726.973L122.784 726.217C144.578 664.783 151.358 599.243 141.876 541.683C140.678 534.459 139.2 527.301 137.517 520.373C124.39 466.819 97.0398 423.279 60.462 397.766C50.3171 390.641 39.1016 384.829 27.1469 380.495C21.7941 378.557 16.2373 376.883 10.859 375.274C2.98264 372.91 -5.14859 370.48 -13.1779 367.065C-24.062 362.468 -39.2539 353.701 -49.8576 338.039C-68.0318 311.212 -65.9926 278.672 -58.0398 257.198C-50.0615 235.625 -36.501 218.715 -14.07 202.297C-9.86419 199.211 -5.50544 196.19 -0.891796 192.972C15.2432 181.743 33.5448 168.97 49.1191 151.337C62.2718 136.43 72.1108 118.436 81.644 101.033C96.6574 73.616 110.83 47.7089 136.268 35.2643C152.098 27.548 170.17 26.4973 187.63 25.5122C193.595 25.1839 199.763 24.8227 205.804 24.2317C218.371 22.9182 230.173 20.1601 239.884 16.2198C249.519 12.3124 257.37 7.05881 262.545 0.951447C269.299 -6.96188 271.721 -13.7916 274.78 -22.4273C276.844 -28.2392 279.164 -34.8391 283.293 -43.015C283.931 -44.2956 284.619 -45.6419 285.358 -47.021C295.401 -65.7371 313.83 -85.0442 330.092 -102.119L332.336 -104.45C344.061 -116.763 356.219 -130.16 364.733 -146.61C367.486 -151.864 369.882 -157.512 371.87 -163.389C385.278 -203.218 374.215 -254.343 346.125 -282.384L346.992 -283.829C375.566 -255.295 386.833 -203.218 373.17 -162.667C371.131 -156.658 368.709 -150.912 365.905 -145.592C357.29 -128.945 345.029 -115.45 333.228 -103.038L330.985 -100.707C314.799 -83.7308 296.471 -64.4893 286.53 -45.9702C285.791 -44.624 285.129 -43.2777 284.466 -41.9971C280.413 -33.9525 278.093 -27.4183 276.054 -21.6721C272.944 -12.8394 270.472 -5.87833 263.488 2.33051C258.16 8.56921 250.157 13.987 240.318 17.9601C230.504 21.9332 218.6 24.7242 205.906 26.0376C199.84 26.6615 193.671 26.9898 187.707 27.351C169.533 28.3689 152.403 29.3539 136.778 36.9717C111.722 49.2193 97.677 74.8965 82.8165 102.084C73.2323 119.553 63.3423 137.645 50.0367 152.716C34.3605 170.48 15.9824 183.286 -0.203575 194.581C-4.81722 197.799 -9.17596 200.82 -13.3563 203.874C-35.5323 220.094 -48.9145 236.775 -56.7653 257.986C-64.5142 278.935 -66.5024 310.687 -48.787 336.857C-38.4127 352.191 -23.4502 360.826 -12.719 365.325C-4.76624 368.707 3.33949 371.137 11.1903 373.501C16.5687 375.11 22.1509 376.784 27.5293 378.721C39.5859 383.121 50.9033 388.966 61.1502 396.157C98.0339 421.9 125.639 465.801 138.868 519.815C140.576 526.809 142.055 534.032 143.278 541.289C152.811 599.243 146.006 665.177 124.059 726.973Z" fill="white" fill-opacity="0.2"/>
<path d="M111.569 726.71L110.295 725.922C133.134 665.177 141.392 603.118 134.153 546.411C133.236 539.319 132.038 532.259 130.636 525.397C119.675 472.072 94.4912 428.139 59.6722 401.706C50.0116 394.351 39.2039 388.178 27.5806 383.417C22.1258 381.184 16.4416 379.247 10.9358 377.342C3.59478 374.847 -4.00117 372.22 -11.5206 368.838C-26.687 362.008 -39.1005 352.092 -47.4867 340.239C-70.249 307.863 -62.0413 271.613 -58.9825 261.27C-52.2787 238.679 -39.9927 220.981 -19.0911 203.972C-13.8912 199.736 -8.33442 195.533 -2.47178 191.101C11.8789 180.265 28.1669 167.985 42.4156 152.257C54.9311 138.433 64.7956 122.147 74.3543 106.386C90.5148 79.7233 105.758 54.5714 131.808 43.0791C146.975 36.4135 163.237 35.527 180.443 34.5748C187.529 34.1808 194.87 33.7867 202.032 32.933C214.471 31.4554 226.579 28.1062 236.189 23.5421C245.849 18.9123 253.394 12.805 258.059 5.87674C263.718 -2.52911 265.272 -9.94989 267.057 -18.5199C268.51 -25.3825 270.141 -33.1644 274.143 -42.7523C274.729 -44.1314 275.341 -45.5434 276.029 -46.9881C285.486 -67.346 305.215 -87.8024 322.981 -105.369C336.516 -118.7 348.42 -131.014 357.086 -146.118C360.043 -151.273 362.669 -156.855 364.835 -162.667C379.874 -202.693 369.398 -254.146 340.467 -282.384L341.308 -283.829C370.774 -255.098 381.455 -202.66 366.135 -161.879C363.892 -155.936 361.241 -150.288 358.208 -145.034C349.44 -129.733 337.459 -117.354 323.848 -103.892C306.183 -86.4561 286.556 -66.1311 277.227 -46.0687C276.564 -44.624 275.978 -43.2449 275.392 -41.8658C271.466 -32.4749 269.861 -24.7914 268.433 -18.0274C266.572 -9.22751 264.992 -1.64258 259.129 7.09161C254.312 14.2497 246.563 20.5213 236.673 25.2495C226.834 29.945 214.905 33.2614 202.185 34.7718C194.972 35.6255 187.605 36.0195 180.519 36.4135C163.39 37.3329 147.229 38.2195 132.267 44.8194C106.624 56.1476 91.4834 81.0695 75.4758 107.502C65.8917 123.329 55.9507 139.713 43.3333 153.636C28.9826 169.495 12.6691 181.808 -1.75807 192.677C-7.62071 197.109 -13.152 201.28 -18.3264 205.515C-38.9476 222.327 -51.0807 239.697 -57.6571 261.926C-60.6394 272.007 -68.6686 307.403 -46.4161 338.991C-38.2084 350.647 -25.9988 360.367 -11.0618 367.098C-3.59333 370.48 3.97713 373.074 11.3182 375.602C16.824 377.474 22.5082 379.444 28.0139 381.677C39.7392 386.503 50.6488 392.709 60.4114 400.13C95.5363 426.825 120.95 471.153 132.012 524.937C133.439 531.833 134.612 538.958 135.555 546.116C142.845 603.184 134.536 665.636 111.569 726.71Z" fill="white" fill-opacity="0.2"/>
<path d="M99.0789 726.447L97.8044 725.627C121.433 666.392 131.323 606.073 126.404 551.14C125.792 544.146 124.9 537.185 123.753 530.421C114.984 477.326 91.9418 433.031 58.8816 405.679C49.7053 398.062 39.3055 391.527 28.0135 386.339C22.4313 383.778 16.5686 381.513 10.9099 379.313C4.10414 376.686 -2.93102 373.961 -9.88972 370.578C-24.8012 363.388 -36.6539 353.931 -45.091 342.406C-67.2161 312.164 -62.8064 278.443 -59.9006 265.341C-54.7262 242.061 -43.3577 223.082 -24.1385 205.647C-17.8935 199.999 -11.0113 194.417 -3.7212 188.54C9.38052 177.901 22.9665 166.901 35.7369 153.176C47.4622 140.534 57.1993 126.021 66.6305 111.968C84.0654 85.995 100.532 61.467 127.372 50.894C141.876 45.1807 157.221 44.4255 173.458 43.6046C181.615 43.2106 190.052 42.7837 198.285 41.6673C210.749 39.9927 222.883 36.1182 232.467 30.8317C242.153 25.4795 249.443 18.5841 253.572 10.835C258.415 1.73959 259.103 -6.1409 259.894 -15.2363C260.582 -23.0182 261.347 -31.8181 265.017 -42.4896C265.603 -44.1313 266.139 -45.6089 266.699 -46.988C275.442 -68.9548 296.369 -90.1992 313.626 -106.256L314.544 -107.077C327.645 -119.258 340.033 -130.784 349.414 -145.658C352.625 -150.715 355.455 -156.198 357.825 -161.912C374.241 -201.478 364.121 -254.376 334.782 -282.384L335.649 -283.862C365.523 -255.328 375.821 -201.38 359.074 -161.058C356.653 -155.213 353.772 -149.664 350.51 -144.509C341.027 -129.437 328.563 -117.879 315.359 -105.599L314.467 -104.778C297.338 -88.8202 276.564 -67.7728 267.948 -46.1671C267.413 -44.8209 266.878 -43.3761 266.317 -41.7343C262.748 -31.3255 262.009 -23.0511 261.321 -15.0393C260.531 -6.07523 259.792 2.39627 254.745 11.8528C250.462 19.8975 242.943 27.0228 233.027 32.5063C223.316 37.8912 211.03 41.7658 198.438 43.5061C190.154 44.6225 181.691 45.0493 173.509 45.4434C157.348 46.2314 142.106 46.9866 127.78 52.6343C101.347 63.0431 85.0086 87.4069 67.7265 113.15C58.2443 127.269 48.4563 141.848 36.629 154.555C23.8077 168.379 10.1962 179.411 -2.982 190.083C-10.2466 195.96 -17.1033 201.509 -23.3228 207.157C-42.5166 224.56 -53.3752 242.685 -58.5496 265.867C-61.379 278.64 -65.6868 311.606 -44.046 341.125C-35.7618 352.453 -24.113 361.779 -9.40541 368.871C-2.4722 372.22 4.53747 374.946 11.3177 377.572C17.002 379.772 22.8646 382.038 28.4978 384.632C39.8917 389.853 50.368 396.453 59.6718 404.136C93.0378 431.751 116.284 476.472 125.155 530.06C126.276 536.856 127.194 543.883 127.831 550.91C132.776 606.237 122.835 666.917 99.0789 726.447Z" fill="white" fill-opacity="0.2"/>
<path d="M86.5632 726.185L85.3142 725.298C109.784 667.541 121.331 608.93 118.68 555.868C118.323 549.005 117.737 542.143 116.896 535.444C110.32 482.58 89.4435 437.891 58.1166 409.653C49.3991 401.772 39.4072 394.909 28.4466 389.262C22.6859 386.307 16.8997 383.778 10.7567 381.119C4.53719 378.426 -1.88622 375.602 -8.25865 372.319C-22.7368 364.898 -34.3092 355.573 -42.6953 344.573C-64.0812 316.532 -63.24 285.469 -60.8185 269.446C-57.1989 245.213 -47.1305 225.479 -29.1602 207.354C-21.8447 199.933 -13.4331 192.71 -4.53716 185.026C6.55088 175.471 18.0213 165.621 29.0328 154.062C39.815 142.8 49.2207 130.126 58.3205 117.878C77.2339 92.4307 95.1022 68.3624 122.937 58.676C136.803 53.8492 151.282 53.2581 166.601 52.6014C175.777 52.2074 185.285 51.8134 194.538 50.4015C207.053 48.497 219.212 44.1299 228.77 38.1211C238.456 32.0466 245.492 24.2974 249.111 15.7603C253.266 5.90967 253.139 -2.95584 252.986 -12.3467C252.833 -21.3765 252.705 -30.6688 255.891 -42.2269C256.376 -43.9343 256.86 -45.4776 257.37 -46.988C265.629 -71.2861 288.085 -92.9574 304.271 -107.142L307.814 -110.229C320.457 -121.229 332.386 -131.637 341.741 -145.166C345.258 -150.222 348.215 -155.443 350.815 -161.156C368.607 -200.23 358.87 -254.606 329.124 -282.384L329.965 -283.862C360.272 -255.558 370.187 -200.099 352.039 -160.237C349.388 -154.425 346.38 -149.073 342.811 -143.951C333.329 -130.225 321.324 -119.784 308.604 -108.718L305.087 -105.632C289.028 -91.5783 266.776 -70.1369 258.67 -46.2328C258.16 -44.788 257.701 -43.2776 257.242 -41.603C254.133 -30.3733 254.26 -21.2451 254.413 -12.4124C254.541 -2.75885 254.693 6.33652 250.36 16.614C246.588 25.5123 239.349 33.5241 229.408 39.7628C219.696 45.8702 207.359 50.303 194.691 52.2403C185.387 53.6522 175.854 54.0462 166.626 54.4402C151.409 55.0641 137.007 55.688 123.294 60.4491C95.8669 70.0042 78.1261 93.8754 59.3401 119.126C50.2148 131.439 40.7836 144.146 29.925 155.474C18.8624 167.065 7.36655 176.982 -3.74697 186.569C-12.6174 194.187 -21.0035 201.411 -28.2936 208.799C-45.9835 226.629 -55.8735 246.034 -59.442 269.774C-61.7871 285.469 -62.6028 315.842 -41.6757 343.292C-33.4425 354.095 -22.0231 363.289 -7.74886 370.644C-1.40191 373.895 5.02151 376.686 11.2155 379.378C17.1036 381.939 23.1702 384.599 28.9818 387.554C40.0444 393.268 50.1128 400.196 58.9068 408.142C90.565 436.676 111.671 481.792 118.298 535.149C119.139 541.913 119.751 548.841 120.082 555.737C122.759 609.16 111.161 668.099 86.5632 726.185Z" fill="white" fill-opacity="0.2"/>
<path d="M74.0734 725.922L72.8499 725.003C98.5946 667.738 111.416 612.41 110.957 560.563C110.881 553.832 110.575 547.068 110.014 540.468C105.681 487.833 86.9713 442.75 57.3267 413.593C49.068 405.482 39.5094 398.258 28.8801 392.184C22.8901 388.769 16.849 385.814 10.4256 382.727C4.86882 380.035 -0.917351 377.211 -6.62705 374.092C-20.6719 366.375 -31.9893 357.182 -40.299 346.74C-61.8123 319.684 -62.9594 289.245 -61.7359 273.517C-59.7986 248.464 -51.0302 227.975 -34.207 209.029C-25.7189 199.474 -15.472 190.214 -4.63885 180.396C4.23158 172.384 13.3824 164.11 22.3548 154.982C31.9389 145.23 40.6819 134.558 49.17 124.248C69.8421 99.0633 89.3673 75.2906 118.477 66.4907C131.731 62.4848 146.005 62.0251 159.821 61.5654C170.017 61.2371 180.519 60.8758 190.791 59.1355C203.357 57.0013 215.541 52.1416 225.075 45.4432C234.761 38.6135 241.541 30.0435 244.651 20.6855C248.194 9.98114 247.225 0.393219 246.18 -9.72006C245.161 -19.505 244.115 -29.6511 246.792 -41.9643C247.149 -43.6717 247.582 -45.3463 248.041 -46.9553C253.649 -66.4594 269.427 -86.9815 294.942 -108.029C296.896 -109.627 298.85 -111.225 300.805 -112.823C313.091 -122.805 324.714 -132.261 334.094 -144.706C337.841 -149.631 341.027 -154.786 343.806 -160.434C363.255 -199.639 354.104 -254.376 323.465 -282.384L324.281 -283.895C355.557 -255.295 364.835 -199.475 345.004 -159.449C342.149 -153.703 338.912 -148.449 335.114 -143.425C325.606 -130.817 313.932 -121.327 301.569 -111.28C299.615 -109.682 297.661 -108.084 295.707 -106.486C270.446 -85.6681 254.872 -65.4416 249.366 -46.3314C248.908 -44.7553 248.525 -43.1792 248.143 -41.4718C245.568 -29.5197 246.588 -19.5706 247.582 -9.98273C248.653 0.426056 249.672 10.211 245.951 21.375C242.714 31.1599 235.729 40.0254 225.763 47.0522C216.077 53.8491 203.714 58.8072 190.969 60.9744C180.646 62.7146 170.068 63.0429 159.872 63.4041C145.496 63.8638 131.91 64.3235 118.808 68.2638C90.0555 76.9651 70.6578 100.574 50.1386 125.594C41.6505 135.937 32.8565 146.609 23.2214 156.427C14.2235 165.555 5.04725 173.862 -3.82318 181.907C-14.6308 191.692 -24.8267 200.918 -33.2638 210.408C-49.8067 229.025 -58.4222 249.153 -60.3339 273.714C-61.5319 289.114 -60.4104 318.928 -39.3049 345.427C-31.1227 355.737 -19.9327 364.799 -6.06628 372.384C-0.382072 375.536 5.37861 378.327 10.9354 381.02C17.3588 384.139 23.4253 387.062 29.4664 390.509C40.1976 396.65 49.8582 403.939 58.1679 412.148C88.1438 441.601 107.057 487.111 111.416 540.271C111.977 546.937 112.308 553.766 112.359 560.563C112.843 612.739 99.9455 668.362 74.0734 725.922Z" fill="white" fill-opacity="0.2"/>
<path d="M61.558 725.659L60.36 724.707C87.1242 668.657 101.551 615.004 103.234 565.292C103.438 558.692 103.412 552.026 103.157 545.492C101.093 493.087 84.5242 447.643 56.5365 417.566C48.7622 409.193 39.6113 401.608 29.339 395.106C23.043 391.133 16.6706 387.686 9.9158 384.074C5.04726 381.447 0.000289917 378.754 -4.9957 375.832C-18.6327 367.853 -29.6953 358.79 -37.9029 348.907C-58.5751 324.018 -62.7809 296.403 -62.6535 277.622C-62.5005 251.846 -55.0575 230.569 -39.2284 210.736C-29.4403 198.423 -16.8739 186.668 -3.59376 174.223C2.7022 168.346 9.20209 162.238 15.651 155.901C23.6803 147.955 31.3272 139.516 38.7192 131.34C61.5835 106.09 83.1733 82.2516 114.041 74.3055C126.659 71.0548 140.117 70.7592 153.117 70.4637C164.282 70.201 175.803 69.9384 187.018 67.8698C199.687 65.5385 211.896 60.1534 221.379 52.7327C231.065 45.1805 237.59 35.7897 240.19 25.5779C243.198 13.987 241.337 3.64392 239.4 -7.29022C237.514 -17.8304 235.576 -28.6989 237.667 -41.7016C237.947 -43.5076 238.304 -45.2478 238.712 -46.9553C244.906 -72.928 267.617 -94.9605 285.587 -108.915C288.238 -110.951 290.889 -112.987 293.54 -114.99C305.597 -124.085 316.991 -132.721 326.422 -144.213C330.424 -149.073 333.814 -154.13 336.796 -159.679C357.57 -198.392 348.853 -254.573 317.781 -282.417L318.596 -283.895C350.306 -255.525 359.176 -198.162 337.969 -158.628C334.935 -152.98 331.469 -147.825 327.39 -142.9C317.832 -131.243 306.387 -122.575 294.254 -113.414C291.628 -111.411 288.952 -109.375 286.326 -107.339C268.56 -93.5814 246.129 -71.8116 240.063 -46.4299C239.68 -44.7881 239.349 -43.0807 239.069 -41.3404C237.029 -28.7317 238.916 -18.0274 240.776 -7.68427C242.764 3.47974 244.651 14.0527 241.541 26.1689C238.814 36.7747 232.11 46.494 222.118 54.3088C212.457 61.8281 200.069 67.3116 187.222 69.7085C175.93 71.7772 164.358 72.0399 153.143 72.3025C139.608 72.5981 126.812 72.8936 114.322 76.1114C83.8105 83.959 62.3737 107.633 39.6623 132.719C32.2448 140.895 24.5724 149.367 16.5176 157.346C10.0687 163.716 3.54337 169.823 -2.7526 175.701C-16.0073 188.113 -28.5227 199.835 -38.2598 212.05C-53.7576 231.521 -61.0731 252.371 -61.226 277.622C-61.3535 296.042 -57.2496 323.131 -36.9343 347.594C-28.8286 357.346 -17.8935 366.277 -4.40944 374.157C0.561062 377.08 5.58254 379.772 10.4511 382.399C17.2314 386.011 23.6293 389.459 29.9507 393.465C40.325 400.032 49.5778 407.682 57.4287 416.154C85.7478 446.559 102.495 492.463 104.559 545.393C104.84 551.961 104.865 558.692 104.636 565.39C102.953 615.398 88.4751 669.347 61.558 725.659Z" fill="white" fill-opacity="0.2"/>
<path d="M49.0683 725.397L47.8703 724.379C76.1894 668.657 91.7636 618.157 95.4851 570.02C95.9949 563.519 96.2498 556.952 96.2753 550.483C96.5302 498.341 82.1285 452.535 55.7466 421.506C48.3036 412.772 39.8155 405.056 29.7726 397.996C23.0943 393.333 16.2885 389.327 9.07492 385.059C4.99656 382.662 0.790749 380.166 -3.36408 377.572C-16.7972 369.199 -27.3244 360.531 -35.5066 351.074C-56.5612 326.842 -62.3983 299.983 -63.5708 281.693C-65.2532 255.294 -59.1356 233.294 -44.2751 212.411C-32.9577 196.519 -17.205 181.611 -0.560207 165.85C2.60052 162.862 5.78674 159.842 8.97296 156.788C14.8611 151.14 20.6982 145.263 26.3315 139.582C51.9741 113.675 76.2149 89.2128 109.581 82.1204C121.561 79.5593 134.204 79.4279 146.439 79.2965C158.547 79.198 171.088 79.0667 183.272 76.6041C196.017 74.0429 208.226 68.1654 217.683 60.0551C227.369 51.7149 233.639 41.5031 235.755 30.5033C238.202 17.9274 235.475 6.82904 232.594 -4.95883C229.867 -16.1885 227.012 -27.8122 228.567 -41.4717C228.771 -43.2776 229.051 -45.1164 229.383 -46.9552C234.736 -74.5368 257.804 -96.3394 276.233 -109.802C279.521 -112.166 282.809 -114.497 286.097 -116.796C298.001 -125.169 309.242 -133.049 318.775 -143.721C323.007 -148.482 326.626 -153.44 329.787 -158.924C340.136 -176.819 344.341 -200.296 341.334 -223.379C338.198 -247.349 327.544 -268.889 312.122 -282.417L312.913 -283.927C328.665 -270.104 339.524 -248.137 342.736 -223.675C345.794 -200.099 341.487 -176.129 330.934 -157.84C327.697 -152.258 324.026 -147.168 319.693 -142.342C310.058 -131.539 298.74 -123.593 286.786 -115.187C283.497 -112.888 280.209 -110.59 276.947 -108.193C258.747 -94.9275 235.985 -73.4532 230.759 -46.4955C230.428 -44.7552 230.173 -42.9492 229.969 -41.209C228.465 -27.9763 231.269 -16.5497 233.945 -5.48419C236.902 6.53354 239.681 17.8617 237.132 30.9302C234.914 42.3897 228.465 52.9626 218.473 61.5655C208.863 69.84 196.45 75.816 183.501 78.41C171.215 80.9055 158.623 81.004 146.439 81.1353C134.281 81.2667 121.689 81.398 109.81 83.9263C76.8011 90.9531 52.7133 115.284 27.1981 141.027C21.5649 146.707 15.7277 152.585 9.81412 158.265C6.6279 161.319 3.44168 164.34 0.280952 167.328C-16.3129 183.056 -31.989 197.898 -43.23 213.659C-57.8102 234.115 -63.8257 255.688 -62.1434 281.562C-60.9964 299.49 -55.2612 325.857 -34.5635 349.728C-26.4833 359.053 -16.058 367.623 -2.75232 375.931C1.4025 378.525 5.60831 380.987 9.66118 383.384C16.9003 387.686 23.7315 391.724 30.4353 396.387C40.4528 403.447 49.2977 411.426 56.6897 420.16C83.3775 451.517 97.9576 497.815 97.7027 550.516C97.6772 557.017 97.4223 563.65 96.9125 570.184C93.1655 618.616 77.5149 669.38 49.0683 725.397Z" fill="white" fill-opacity="0.2"/>
<path d="M36.5528 725.134L35.4058 724.083C65.4327 668.526 82.0775 621.079 87.7617 574.748C88.5519 568.378 89.1127 561.91 89.4185 555.507C91.9675 504.382 79.4011 456.968 54.9564 425.446C47.9977 416.449 39.892 408.438 30.2059 400.918C23.0688 395.402 15.7022 390.641 7.87689 385.584C4.69067 383.548 1.47897 381.48 -1.73274 379.313C-15.0384 370.48 -25.0049 362.205 -33.1106 353.274C-54.7004 329.502 -62.0924 303.463 -64.463 285.798C-68.0315 259.267 -63.0865 235.822 -49.3221 214.118C-37.087 194.877 -18.7089 177.179 2.26915 157.707C5.03903 155.146 7.79192 152.585 10.5278 150.024C40.0449 122.344 67.9307 96.2067 105.146 89.9352C116.463 87.9979 128.265 88.0307 139.71 88.0964C152.812 88.1621 166.398 88.1949 179.525 85.3382C192.346 82.5472 204.581 76.1772 213.987 67.3445C223.673 58.2491 229.689 47.2165 231.32 35.3958C233.206 21.8348 229.612 9.88272 225.814 -2.75885C222.22 -14.6781 218.499 -26.9913 219.442 -41.209C219.569 -43.1134 219.773 -45.0507 220.079 -46.9552C224.744 -77.6562 251.406 -100.05 266.878 -110.688C270.727 -113.315 274.678 -115.876 278.501 -118.339C290.303 -126.023 301.468 -133.279 311.103 -143.228C315.614 -147.891 319.412 -152.783 322.777 -158.168C333.84 -175.998 338.53 -199.639 335.7 -223.084C332.795 -247.316 322.114 -268.955 306.464 -282.417L307.254 -283.927C323.236 -270.202 334.12 -248.104 337.102 -223.379C340.008 -199.442 335.191 -175.243 323.899 -157.019C320.458 -151.536 316.583 -146.545 311.995 -141.816C302.232 -131.703 290.482 -124.085 279.139 -116.73C275.315 -114.235 271.39 -111.674 267.541 -109.047C252.298 -98.6051 226.018 -76.5726 221.455 -46.594C221.201 -44.7552 220.997 -42.9164 220.869 -41.0448C219.926 -27.254 223.596 -15.1378 227.114 -3.41556C231.014 9.45587 234.685 21.6378 232.722 35.7241C231.014 48.0045 224.82 59.4312 214.803 68.8221C205.244 77.819 192.805 84.3203 179.754 87.1442C166.5 90.0337 152.888 89.968 139.71 89.9352C128.316 89.8695 116.54 89.8367 105.324 91.7411C68.4915 97.9798 40.7332 123.953 11.3435 151.501C8.6076 154.062 5.8632 156.624 3.11031 159.185C-17.8168 178.59 -36.0929 196.223 -48.2005 215.268C-61.7101 236.545 -66.5786 259.497 -63.061 285.469C-60.716 302.839 -53.4769 328.451 -32.193 351.862C-24.1637 360.695 -14.2992 368.904 -1.0955 377.704C2.1417 379.838 5.35341 381.907 8.51414 383.975C16.365 389.032 23.757 393.793 30.9196 399.342C40.7332 406.96 48.9154 415.07 55.9505 424.166C80.6756 456.049 93.395 503.955 90.8205 555.638C90.5146 562.074 89.9538 568.608 89.1637 575.011C83.454 621.637 66.7327 669.347 36.5528 725.134Z" fill="white" fill-opacity="0.2"/>
<path d="M24.063 724.871L22.9159 723.788C44.4547 686.421 70.4033 636.249 80.0639 579.444C81.109 573.205 81.9501 566.835 82.5619 560.53C87.4304 509.669 77.0816 461.893 54.1663 429.419C47.641 420.16 39.9685 411.787 30.6393 403.84C22.8649 397.208 14.7592 391.527 6.16915 385.485C4.07899 384.019 1.98883 382.541 -0.101326 381.053C-9.02273 374.716 -20.5951 366.08 -30.74 355.441C-48.6593 336.627 -60.3081 314.561 -65.355 289.869C-70.8863 262.977 -67.2668 238.745 -54.3435 215.826C-41.8025 193.596 -21.0794 173.567 -4.40909 158.594C28.1158 129.403 60.6407 102.774 100.685 97.7169C111.314 96.4036 122.3 96.6006 132.955 96.8304C147.076 97.0931 161.657 97.3558 175.778 94.0723C188.65 91.0843 200.911 84.1888 210.291 74.6666C219.977 64.7503 225.738 52.864 226.885 40.3209C228.236 25.6764 223.75 12.9034 218.983 -0.624725C214.548 -13.2006 209.985 -26.1706 210.342 -40.9465C210.393 -42.9494 210.52 -44.9524 210.75 -46.9225C214.446 -79.2981 241.643 -101.331 257.549 -111.542C261.908 -114.366 266.394 -117.059 270.753 -119.653C282.019 -126.417 293.668 -133.411 303.456 -142.769C308.197 -147.3 312.224 -152.094 315.767 -157.413C327.544 -175.177 332.744 -199.016 330.093 -222.854C327.391 -247.316 316.685 -269.02 300.78 -282.417L301.57 -283.96C317.807 -270.268 328.716 -248.104 331.495 -223.117C334.222 -198.753 328.869 -174.389 316.838 -156.231C313.244 -150.813 309.14 -145.921 304.297 -141.291C294.382 -131.835 282.682 -124.808 271.339 -118.011C267.006 -115.417 262.519 -112.724 258.161 -109.933C245.569 -101.79 215.899 -79.3966 212.152 -46.6598C211.948 -44.7554 211.82 -42.8181 211.769 -40.9136C211.413 -26.5318 215.899 -13.7588 220.257 -1.37991C224.897 11.787 229.689 25.3808 228.287 40.5179C227.089 53.5535 221.175 65.8668 211.158 76.1114C201.599 85.7978 189.134 92.8246 176.033 95.8782C161.784 99.1946 147.102 98.9319 132.93 98.6364C122.326 98.4394 111.365 98.2095 100.838 99.5558C61.125 104.547 28.7785 131.045 -3.59341 160.104C-20.1617 174.978 -40.7829 194.877 -53.1964 216.909C-65.8648 239.368 -69.3824 263.076 -63.9786 289.409C-59.0081 313.708 -47.5122 335.445 -29.8223 354.029C-19.7794 364.569 -8.30902 373.172 0.586899 379.477C2.67706 380.943 4.75872 382.41 6.83189 383.877C15.4729 389.918 23.6041 395.632 31.4295 402.297C40.8352 410.375 48.635 418.813 55.2114 428.171C78.4071 461.039 88.8833 509.373 83.9638 560.727C83.3521 567.098 82.5109 573.533 81.4403 579.838C71.7287 636.971 45.6782 687.373 24.063 724.871Z" fill="white" fill-opacity="0.2"/>
<path d="M11.5476 724.609L10.426 723.459C34.5393 684.254 60.7683 637.037 72.3406 584.172C73.6661 578.032 74.8131 571.76 75.6798 565.522C82.9188 514.988 74.7876 466.819 53.3763 433.359C47.3097 423.87 40.0196 415.169 31.0727 406.73C22.4827 398.685 13.3574 391.757 3.72224 384.468L1.53013 382.793C-8.46185 375.241 -18.9636 366.966 -28.3438 357.608C-47.0278 338.892 -59.7727 317.484 -66.2471 293.941C-73.6136 267.18 -71.294 241.47 -59.3649 217.533C-49.8572 198.39 -34.0535 179.444 -11.0873 159.513C13.5613 138.137 51.541 109.242 96.25 105.532C106.115 104.711 116.259 105.105 126.098 105.433C141.239 105.991 156.916 106.583 172.005 102.806C184.827 99.6214 197.419 92.0365 206.595 81.9561C216.307 71.2517 221.787 58.5445 222.45 45.2134C223.291 29.4853 217.862 15.8258 212.101 1.37827C206.875 -11.7887 201.446 -25.4153 201.242 -40.7166C201.217 -42.7852 201.268 -44.8867 201.446 -46.9225C204.224 -82.1876 235.067 -104.483 248.194 -112.429C253.037 -115.384 258.033 -118.142 262.902 -120.802C274.168 -127.041 285.843 -133.476 295.784 -142.276C300.831 -146.709 305.062 -151.437 308.758 -156.658C321.248 -174.291 326.983 -198.293 324.511 -222.526C322.013 -247.251 311.281 -269.086 295.121 -282.417L295.886 -283.96C312.403 -270.334 323.364 -248.006 325.938 -222.755C328.461 -197.998 322.573 -173.437 309.803 -155.443C306.056 -150.091 301.723 -145.297 296.574 -140.766C286.531 -131.867 274.806 -125.399 263.437 -119.127C258.62 -116.468 253.598 -113.709 248.781 -110.787C235.883 -102.972 205.55 -81.0712 202.848 -46.7583C202.695 -44.7553 202.644 -42.7524 202.67 -40.7494C202.874 -25.875 208.201 -12.4454 213.375 0.557404C218.958 14.5781 224.718 29.1241 223.877 45.3119C223.189 59.1684 217.53 72.3353 207.513 83.368C198.158 93.6126 185.311 101.362 172.286 104.612C157.043 108.388 141.29 107.83 126.047 107.272C116.259 106.911 106.14 106.55 96.3519 107.371C51.9743 111.048 14.224 139.746 -10.2971 161.023C-33.1104 180.79 -48.7611 199.605 -58.1668 218.518C-69.8411 241.963 -72.1097 267.114 -64.9216 293.35C-58.5492 316.531 -45.9318 337.677 -27.4517 356.164C-18.1734 365.456 -7.69716 373.698 2.24384 381.25L4.43596 382.892C14.1221 390.214 23.2729 397.142 31.9139 405.252C40.9373 413.79 48.3293 422.589 54.4723 432.177C76.1386 466.063 84.3972 514.791 77.0817 565.85C76.1896 572.154 75.0425 578.491 73.6916 584.664C62.0428 637.825 35.7374 685.239 11.5476 724.609Z" fill="white" fill-opacity="0.2"/>
<path d="M-0.968277 724.346L-2.03885 723.164C22.9411 685.141 50.7504 640.255 64.6168 588.9C66.2482 582.891 67.6501 576.718 68.8226 570.545C78.4323 520.373 72.5186 471.777 52.5857 437.3C46.9524 427.548 40.0702 418.518 31.5056 409.652C22.6607 400.491 13.0511 392.545 3.16106 384.566L1.8101 383.45C-7.49365 375.963 -17.1033 368.181 -25.9482 359.776C-45.6263 341.059 -59.4927 320.275 -67.1396 298.012C-76.4179 271.087 -75.4748 244.589 -64.4122 219.24C-55.2869 198.423 -39.6107 178.623 -17.7915 160.432C6.57668 139.976 45.3466 115.251 91.7889 113.347C100.863 112.985 110.141 113.511 119.114 114.003C135.351 114.89 152.149 115.809 168.258 111.541C181.181 108.159 193.799 100.015 202.899 89.2784C212.585 77.8188 217.836 64.2578 218.04 50.1058C218.294 33.2942 211.642 18.0914 205.193 3.38123C199.177 -10.4096 192.932 -24.6601 192.142 -40.4867C192.04 -42.621 192.04 -44.7882 192.116 -46.9225C193.824 -83.8622 225.355 -105.665 238.839 -113.315C244.116 -116.336 249.621 -119.094 254.923 -121.787C266.266 -127.533 277.991 -133.476 288.111 -141.784C293.413 -146.118 297.873 -150.748 301.748 -155.903C314.952 -173.47 321.222 -197.702 318.902 -222.361C316.557 -247.283 305.826 -269.185 289.462 -282.417L290.201 -283.96C306.948 -270.432 317.934 -248.039 320.304 -222.591C322.675 -197.374 316.277 -172.616 302.767 -154.655C298.816 -149.369 294.254 -144.64 288.875 -140.24C278.654 -131.835 266.852 -125.859 255.458 -120.079C250.157 -117.42 244.676 -114.629 239.4 -111.641C226.171 -104.122 195.201 -82.7786 193.544 -46.824C193.442 -44.7553 193.467 -42.6539 193.569 -40.5853C194.309 -25.1855 200.477 -11.132 206.442 2.49466C212.967 17.4019 219.722 32.8345 219.441 50.1387C219.238 64.8161 213.834 78.8039 203.867 90.6246C194.563 101.592 181.691 109.866 168.538 113.347C152.251 117.648 135.376 116.729 119.037 115.809C110.09 115.317 100.863 114.824 91.8398 115.185C45.7289 117.057 7.18844 141.651 -17.0013 161.943C-38.6421 180.002 -54.1654 199.572 -63.1632 220.127C-74.0219 244.951 -74.914 270.89 -65.8397 297.29C-58.2947 319.257 -44.5812 339.779 -25.1071 358.298C-16.2876 366.671 -6.70347 374.42 2.5748 381.906L3.92575 382.99C13.8413 391.035 23.5019 399.014 32.3978 408.208C41.0643 417.204 48.023 426.333 53.7327 436.216C73.8951 471.153 79.9106 520.274 70.2245 570.972C69.0265 577.211 67.5991 583.417 65.9678 589.491C52.0249 641.141 24.1136 686.191 -0.968277 724.346Z" fill="white" fill-opacity="0.2"/>
<path d="M-13.4579 724.083L-14.503 722.836C15.5239 680.117 41.6509 640.879 56.8937 593.596C74.4052 539.385 72.4425 481.004 51.7958 441.24C37.649 413.987 15.6513 395.402 -5.60711 377.441C-11.5462 372.417 -17.6892 367.229 -23.5519 361.943C-78.6097 312.263 -81.1587 265.112 -73.5882 234.279C-58.2944 171.859 13.7906 121.162 87.1246 121.162C87.1925 121.162 87.269 121.162 87.354 121.162C95.5362 121.194 103.897 121.818 111.952 122.409C129.336 123.723 147.331 125.102 164.511 120.275C188.727 113.511 214.165 88.3263 213.605 54.9656C213.299 37.0704 205.652 20.9482 198.26 5.35147C190.511 -11.0005 182.507 -27.8779 182.813 -46.9223C183.425 -86.6202 218.703 -108.456 229.485 -114.202C235.169 -117.223 241.134 -119.981 246.894 -122.673C264.023 -130.587 281.739 -138.795 294.738 -155.147C308.681 -172.682 315.436 -197.144 313.295 -222.23C311.128 -247.316 300.372 -269.25 283.778 -282.417L284.543 -283.993C301.493 -270.531 312.479 -248.071 314.697 -222.427C316.915 -196.783 309.981 -171.762 295.733 -153.834C282.503 -137.219 264.635 -128.945 247.379 -120.933C241.618 -118.273 235.679 -115.515 230.02 -112.527C219.442 -106.88 184.827 -85.4709 184.24 -46.8895C183.935 -28.3704 191.836 -11.7229 199.458 4.39926C206.952 20.193 214.701 36.545 215.032 54.9327C215.593 89.2785 189.593 115.153 164.817 122.081C147.433 126.941 129.361 125.561 111.875 124.248C103.82 123.624 95.5107 123 87.354 123C87.269 123 87.1925 123 87.1246 123C14.3514 123 -57.0964 173.107 -72.2373 234.837C-79.6548 265.079 -77.0803 311.409 -22.7362 360.465C-16.8736 365.719 -10.756 370.907 -4.81693 375.931C16.569 393.99 38.6686 412.673 52.9683 440.222C73.8954 480.478 75.9091 539.516 58.2192 594.318C42.8744 641.831 16.6709 681.2 -13.4579 724.083Z" fill="white" fill-opacity="0.2"/>
</svg>
