<svg width="36" height="36" viewBox="0 0 36 36" fill="none" xmlns="http://www.w3.org/2000/svg">
<path d="M24.4795 12.2403C24.4795 13.9589 23.7968 15.6071 22.5816 16.8223C21.3663 18.0375 19.7181 18.7203 17.9995 18.7203C16.2809 18.7203 14.6327 18.0375 13.4175 16.8223C12.2022 15.6071 11.5195 13.9589 11.5195 12.2403C11.5195 10.5217 12.2022 8.87344 13.4175 7.6582C14.6327 6.44297 16.2809 5.76025 17.9995 5.76025C19.7181 5.76025 21.3663 6.44297 22.5816 7.6582C23.7968 8.87344 24.4795 10.5217 24.4795 12.2403Z" fill="#985184"/>
<path d="M8.63988 17.2803C8.63988 18.0441 8.33646 18.7766 7.79635 19.3167C7.25625 19.8568 6.52371 20.1603 5.75988 20.1603C4.99606 20.1603 4.26352 19.8568 3.72342 19.3167C3.18331 18.7766 2.87988 18.0441 2.87988 17.2803C2.87988 16.5164 3.18331 15.7839 3.72342 15.2438C4.26352 14.7037 4.99606 14.4003 5.75988 14.4003C6.52371 14.4003 7.25625 14.7037 7.79635 15.2438C8.33646 15.7839 8.63988 16.5164 8.63988 17.2803Z" fill="#FBB945"/>
<path d="M33.1204 17.2803C33.1204 18.0441 32.8169 18.7766 32.2768 19.3167C31.7367 19.8568 31.0042 20.1603 30.2404 20.1603C29.4765 20.1603 28.744 19.8568 28.2039 19.3167C27.6638 18.7766 27.3604 18.0441 27.3604 17.2803C27.3604 16.5164 27.6638 15.7839 28.2039 15.2438C28.744 14.7037 29.4765 14.4003 30.2404 14.4003C31.0042 14.4003 31.7367 14.7037 32.2768 15.2438C32.8169 15.7839 33.1204 16.5164 33.1204 17.2803Z" fill="#1AD3BB"/>
<path d="M18 21.6002H2.88C2.11618 21.6002 1.38364 21.9036 0.843533 22.4438C0.303428 22.9839 0 23.7164 0 24.4802L0 27.3602C0 28.124 0.303428 28.8566 0.843533 29.3967C1.38364 29.9368 2.11618 30.2402 2.88 30.2402H18V21.6002Z" fill="#FBB945"/>
<path d="M33.12 21.6002H18V30.2402H33.12C33.8838 30.2402 34.6164 29.9368 35.1565 29.3967C35.6966 28.8566 36 28.124 36 27.3602V24.4802C36 23.7164 35.6966 22.9839 35.1565 22.4438C34.6164 21.9036 33.8838 21.6002 33.12 21.6002Z" fill="#1AD3BB"/>
<path d="M8.63965 21.6002H18.7196C23.4911 21.6002 27.3596 25.4688 27.3596 30.2402H17.2796C12.5082 30.2402 8.63965 26.3717 8.63965 21.6002Z" fill="#985184"/>
</svg>
