<svg width="36" height="36" viewBox="0 0 36 36" fill="none" xmlns="http://www.w3.org/2000/svg">
<g clip-path="url(#clip0_36_660)">
<path d="M36.0004 13.6969C36.0004 13.1677 35.4698 12.8113 34.9938 13.0215L14.8338 21.9517C14.7041 22.0105 14.5941 22.1057 14.5172 22.2257C14.4403 22.3456 14.3997 22.4853 14.4004 22.6277V29.5037C14.4004 29.9105 14.723 30.2403 15.1204 30.2403H33.1204C34.7116 30.2403 36.0004 28.9227 36.0004 27.2962V13.6969Z" fill="#FBB945"/>
<path d="M30.2402 10.0932C30.2402 9.57332 29.7225 9.21908 29.2495 9.41492L7.64948 18.3386C7.51581 18.3946 7.40176 18.489 7.32178 18.6099C7.2418 18.7308 7.19949 18.8726 7.2002 19.0176V29.508C7.2002 29.9126 7.52276 30.2402 7.9202 30.2402H27.3602C28.9514 30.2402 30.2402 28.9291 30.2402 27.3112V10.0932Z" fill="#FC868B"/>
<path d="M30.2404 15.1274L14.8338 21.9516C14.571 22.0682 14.4004 22.3332 14.4004 22.627V29.5044C14.4004 29.9105 14.723 30.2402 15.1204 30.2402H27.3604C28.9516 30.2402 30.2404 28.9284 30.2404 27.3113V15.1274Z" fill="#F86126"/>
<path d="M23.04 6.4911C23.04 5.9727 22.5223 5.6199 22.0493 5.8143L0.449284 14.7164C0.315838 14.7721 0.201918 14.8661 0.121942 14.9866C0.0419656 15.1071 -0.000470666 15.2486 3.93783e-06 15.3932V29.5102C3.93783e-06 29.9134 0.322564 30.2403 0.720004 30.2403H20.16C21.7512 30.2403 23.04 28.9321 23.04 27.3185V6.4911Z" fill="#1AD3BB"/>
<path d="M23.0402 11.9803L7.64948 18.3387C7.51581 18.3947 7.40176 18.4891 7.32178 18.61C7.2418 18.7308 7.19949 18.8727 7.2002 19.0176V29.508C7.2002 29.9127 7.52276 30.2403 7.9202 30.2403H20.1602C21.7514 30.2403 23.0402 28.932 23.0402 27.3185V11.9803Z" fill="#1A6F66"/>
</g>
<defs>
<clipPath id="clip0_36_660">
<rect width="36" height="36" fill="white" transform="translate(0 0.000244141)"/>
</clipPath>
</defs>
</svg>
