<svg width="37" height="36" viewBox="0 0 37 36" fill="none" xmlns="http://www.w3.org/2000/svg">
<g clip-path="url(#clip0_36_676)">
<path fill-rule="evenodd" clip-rule="evenodd" d="M16.4315 12.2402H4.26562V9.36022C4.26562 8.5964 4.56905 7.86386 5.10916 7.32376C5.64926 6.78365 6.3818 6.48022 7.14563 6.48022H18.5483L23.8381 12.2402H33.7856C34.5494 12.2402 35.282 12.5437 35.8221 13.0838C36.3622 13.6239 36.6656 14.3564 36.6656 15.1202V18.0002H21.7213L16.4315 12.2402Z" fill="#FC868B"/>
<path fill-rule="evenodd" clip-rule="evenodd" d="M12.7419 23.7602H0.666016V20.8802C0.666016 20.1164 0.969443 19.3839 1.50955 18.8438C2.04965 18.3037 2.78219 18.0002 3.54602 18.0002H15.0387L20.3285 24.4802H30.186C30.9498 24.4802 31.6824 24.7837 32.2225 25.3238C32.7626 25.8639 33.066 26.5964 33.066 27.3602V30.2402H18.0324L12.7419 23.7602Z" fill="#1AD3BB"/>
<path fill-rule="evenodd" clip-rule="evenodd" d="M23.148 18.0002H36.666V15.1202C36.666 14.3564 36.3626 13.6239 35.8225 13.0838C35.2824 12.5437 34.5498 12.2402 33.786 12.2402H20.7965L14.9184 18.0002H3.54602C2.78219 18.0002 2.04965 18.3037 1.50955 18.8438C0.969443 19.3839 0.666016 20.1164 0.666016 20.8802L0.666016 23.7602H17.2707L23.148 18.0002Z" fill="#985184"/>
<path d="M18.643 22.4153L15.0387 18.0002H3.54602C2.78248 18.0012 2.0505 18.3049 1.5106 18.8448C0.970702 19.3847 0.666968 20.1167 0.666016 20.8802L0.666016 23.7602H17.2707L18.643 22.4153Z" fill="#005E7A"/>
</g>
<defs>
<clipPath id="clip0_36_676">
<rect width="36" height="36" fill="white" transform="translate(0.666016 0.000244141)"/>
</clipPath>
</defs>
</svg>
