<svg width="37" height="36" viewBox="0 0 37 36" fill="none" xmlns="http://www.w3.org/2000/svg">
<path d="M22.54 24.9209L16.7044 32.3995L4.25917 22.5866C3.68428 22.1275 3.31481 21.4592 3.23168 20.7281C3.14855 19.9971 3.35854 19.2629 3.81565 18.6864L7.95421 13.4714L22.54 24.9209Z" fill="#985184"/>
<path d="M16.6223 32.3347L9.09473 26.3335L14.9469 18.9592L22.5407 24.9208L16.7051 32.4002L16.6223 32.3347Z" fill="#005E7A"/>
<path d="M16.6011 32.3181L16.7048 32.4002L32.8666 11.688C33.3167 11.1108 33.5211 10.3794 33.4354 9.65243C33.3496 8.9255 32.9807 8.26169 32.4087 7.80502L27.1347 3.60022L14.9473 18.9593L22.5411 24.9209L16.7055 32.3995L16.6011 32.3181Z" fill="#1AD3BB"/>
</svg>
