<svg width="37" height="37" viewBox="0 0 37 37" fill="none" xmlns="http://www.w3.org/2000/svg">
<path d="M3.54492 18.5001C3.54492 16.9096 4.83434 15.6201 6.42492 15.6201H11.4649V30.7401C11.4649 32.3307 11.4649 33.6201 11.4649 33.6201H3.54492V18.5001Z" fill="#93407D"/>
<path d="M3.54492 18.5001C3.54492 16.9096 4.83434 15.6201 6.42492 15.6201H11.4649V30.7401C11.4649 32.3307 11.4649 33.6201 11.4649 33.6201H3.54492V18.5001Z" fill="url(#paint0_linear_36_456)" fill-opacity="0.2"/>
<path d="M19.3848 6.26013C19.3848 4.66955 20.7356 3.38013 22.4019 3.38013H33.7848V30.7401C33.7848 32.3307 32.434 33.6201 30.7676 33.6201H19.3848V6.26013Z" fill="#FBB130"/>
<path d="M19.3848 6.26013C19.3848 4.66955 20.7356 3.38013 22.4019 3.38013H33.7848V30.7401C33.7848 32.3307 32.434 33.6201 30.7676 33.6201H19.3848V6.26013Z" fill="url(#paint1_linear_36_456)" fill-opacity="0.2"/>
<path d="M11.4648 12.7885C11.4648 11.1712 12.8156 9.86011 14.482 9.86011H25.8648V30.6917C25.8648 32.309 24.5141 33.6201 22.8477 33.6201H11.4648V12.7885Z" fill="#FC787D"/>
<path d="M11.4648 12.7885C11.4648 11.1712 12.8156 9.86011 14.482 9.86011H25.8648V30.6917C25.8648 32.309 24.5141 33.6201 22.8477 33.6201H11.4648V12.7885Z" fill="url(#paint2_linear_36_456)" fill-opacity="0.2"/>
<path d="M19.3848 33.6201H22.8476C24.514 33.6201 25.8648 32.309 25.8648 30.6917V9.86011H19.3848V33.6201Z" fill="#F85318"/>
<path d="M19.3848 33.6201H22.8476C24.514 33.6201 25.8648 32.309 25.8648 30.6917V9.86011H19.3848V33.6201Z" fill="url(#paint3_linear_36_456)" fill-opacity="0.2"/>
<path d="M11.4648 33.6201C12.6637 33.6201 13.8626 33.6193 15.0614 33.619C16.6533 33.6187 17.9448 32.3286 17.9448 30.7367V15.6201H11.4648V33.6201Z" fill="#911E3D"/>
<path d="M11.4648 33.6201C12.6637 33.6201 13.8626 33.6193 15.0614 33.619C16.6533 33.6187 17.9448 32.3286 17.9448 30.7367V15.6201H11.4648V33.6201Z" fill="url(#paint4_linear_36_456)" fill-opacity="0.2"/>
<defs>
<linearGradient id="paint0_linear_36_456" x1="3.54492" y1="15.6201" x2="13.3266" y2="16.6961" gradientUnits="userSpaceOnUse">
<stop stop-color="white"/>
<stop offset="1" stop-color="white" stop-opacity="0"/>
</linearGradient>
<linearGradient id="paint1_linear_36_456" x1="19.3848" y1="3.38013" x2="37.1332" y2="5.49304" gradientUnits="userSpaceOnUse">
<stop stop-color="white"/>
<stop offset="1" stop-color="white" stop-opacity="0"/>
</linearGradient>
<linearGradient id="paint2_linear_36_456" x1="11.4648" y1="9.86011" x2="29.0609" y2="12.5262" gradientUnits="userSpaceOnUse">
<stop stop-color="white"/>
<stop offset="1" stop-color="white" stop-opacity="0"/>
</linearGradient>
<linearGradient id="paint3_linear_36_456" x1="19.3848" y1="9.86011" x2="27.4473" y2="10.4098" gradientUnits="userSpaceOnUse">
<stop stop-color="white"/>
<stop offset="1" stop-color="white" stop-opacity="0"/>
</linearGradient>
<linearGradient id="paint4_linear_36_456" x1="11.4648" y1="15.6201" x2="19.4998" y2="16.3433" gradientUnits="userSpaceOnUse">
<stop stop-color="white"/>
<stop offset="1" stop-color="white" stop-opacity="0"/>
</linearGradient>
</defs>
</svg>
