<svg width="169" height="59" viewBox="0 0 169 59" fill="none" xmlns="http://www.w3.org/2000/svg">
<path d="M8.06544 8.87481C5.80712 11.1332 1.74751 9.81579 0 8.87481L12.9047 1.21254C14.1952 -0.0779424 15.5932 0.674842 16.1309 1.21254L30.973 10.1961C31.2724 10.3772 31.4552 10.7017 31.4552 11.0516V22.9895C31.4552 25.2479 28.4979 25.0059 27.0192 24.6026L10.8489 14.8251C10.2697 14.4749 10.1984 13.6625 10.7078 13.2168L12.3564 11.7742C12.6832 11.4883 13.1571 11.4459 13.5294 11.6693L27.0192 19.7633V12.5043L14.1145 5.24532L8.06544 8.87481Z" fill="#2971FD"/>
<path d="M9 3.5C11.5 3.5 14 4.50011 14.5 5.5L8 9.0001C5.5 11.0001 2 10.0001 0 9.0001L9 3.5Z" fill="#0446CC"/>
<path d="M23.4062 32.1247C25.6646 29.8663 29.7242 31.1837 31.4717 32.1247L18.567 39.787C17.2765 41.0775 15.8785 40.3247 15.3408 39.787L0.498651 30.8035C0.199325 30.6223 0.0164576 30.2978 0.0164576 29.948L0.0164565 18.01C0.0164563 15.7517 2.97379 15.9936 4.45245 16.3969L20.6228 26.1744C21.202 26.5246 21.2732 27.337 20.7639 27.7827L19.1153 29.2253C18.7885 29.5112 18.3146 29.5536 17.9422 29.3302L4.45245 21.2362L4.45245 28.4952L17.3572 35.7542L23.4062 32.1247Z" fill="#2971FD"/>
<path d="M22.4717 37.4995C20 37.4996 17.6383 36.4995 16.9717 35.4995L23.4717 31.9994C25.9717 29.9994 29.4717 30.9994 31.4717 31.9994L22.4717 37.4995Z" fill="#0446CC"/>
<path d="M50.5197 29.26C49.4103 29.26 48.353 29.0867 47.3477 28.74C46.3423 28.3933 45.467 27.908 44.7217 27.284C43.9763 26.66 43.4303 25.9407 43.0837 25.126C42.9103 24.762 42.9103 24.424 43.0837 24.112C43.2743 23.8 43.5863 23.6007 44.0197 23.514C44.3317 23.4447 44.635 23.4967 44.9297 23.67C45.2417 23.826 45.4757 24.0687 45.6317 24.398C45.8397 24.8313 46.1777 25.23 46.6457 25.594C47.131 25.958 47.7117 26.2527 48.3877 26.478C49.0637 26.7033 49.7743 26.816 50.5197 26.816C51.3517 26.816 52.1143 26.686 52.8077 26.426C53.5183 26.166 54.0903 25.7933 54.5237 25.308C54.957 24.8053 55.1737 24.19 55.1737 23.462C55.1737 22.5433 54.8097 21.72 54.0817 20.992C53.371 20.264 52.1923 19.8133 50.5457 19.64C48.3963 19.432 46.7063 18.7993 45.4757 17.742C44.245 16.6847 43.6297 15.376 43.6297 13.816C43.6297 12.672 43.9503 11.7013 44.5917 10.904C45.233 10.1067 46.0997 9.5 47.1917 9.084C48.301 8.668 49.5317 8.46 50.8837 8.46C51.941 8.46 52.8597 8.60733 53.6397 8.902C54.437 9.19667 55.1303 9.604 55.7197 10.124C56.309 10.644 56.8203 11.2593 57.2537 11.97C57.4963 12.3513 57.5917 12.7153 57.5397 13.062C57.505 13.3913 57.3403 13.6513 57.0457 13.842C56.7163 14.05 56.361 14.0933 55.9797 13.972C55.5983 13.8507 55.3123 13.6253 55.1217 13.296C54.8443 12.7933 54.5063 12.3687 54.1077 12.022C53.709 11.6753 53.241 11.4067 52.7037 11.216C52.1663 11.008 51.5337 10.904 50.8057 10.904C49.523 10.8867 48.4483 11.1293 47.5817 11.632C46.715 12.1173 46.2817 12.8713 46.2817 13.894C46.2817 14.414 46.4117 14.9167 46.6717 15.402C46.949 15.87 47.443 16.2773 48.1537 16.624C48.8817 16.9707 49.9217 17.2133 51.2737 17.352C53.3363 17.56 54.9397 18.1927 56.0837 19.25C57.245 20.29 57.8257 21.668 57.8257 23.384C57.8257 24.372 57.6177 25.23 57.2017 25.958C56.803 26.686 56.257 27.3013 55.5637 27.804C54.8877 28.2893 54.1077 28.6533 53.2237 28.896C52.357 29.1387 51.4557 29.26 50.5197 29.26ZM64.2601 35.24C64.0867 35.24 63.8787 35.188 63.6361 35.084C62.8734 34.7373 62.6654 34.1913 63.0121 33.446L70.9421 15.532C71.2887 14.804 71.8347 14.596 72.5801 14.908C73.3601 15.2373 73.5767 15.7833 73.2301 16.546L65.2741 34.434C65.0661 34.9713 64.7281 35.24 64.2601 35.24ZM67.3281 28.428C66.9987 28.5667 66.6867 28.584 66.3921 28.48C66.1147 28.3587 65.8894 28.1333 65.7161 27.804L59.7621 16.494C59.5887 16.1647 59.5627 15.8527 59.6841 15.558C59.8227 15.246 60.0567 15.0207 60.3861 14.882C60.7154 14.7433 61.0274 14.7347 61.3221 14.856C61.6167 14.96 61.8421 15.1767 61.9981 15.506L67.6921 26.816C67.8654 27.1453 67.9261 27.466 67.8741 27.778C67.8394 28.0727 67.6574 28.2893 67.3281 28.428ZM87.7397 29.026C87.3584 29.026 87.0377 28.9047 86.7777 28.662C86.535 28.402 86.4137 28.0813 86.4137 27.7V21.304C86.4137 20.316 86.2317 19.51 85.8677 18.886C85.5037 18.262 85.0097 17.8027 84.3857 17.508C83.779 17.196 83.077 17.04 82.2797 17.04C81.5517 17.04 80.893 17.1873 80.3037 17.482C79.7144 17.7767 79.2464 18.1753 78.8997 18.678C78.553 19.1633 78.3797 19.7267 78.3797 20.368H76.7417C76.7417 19.276 77.0017 18.3053 77.5217 17.456C78.059 16.5893 78.787 15.9047 79.7057 15.402C80.6244 14.8993 81.6557 14.648 82.7997 14.648C83.9957 14.648 85.0617 14.908 85.9977 15.428C86.951 15.9307 87.6964 16.676 88.2337 17.664C88.7884 18.652 89.0657 19.8653 89.0657 21.304V27.7C89.0657 28.0813 88.9357 28.402 88.6757 28.662C88.433 28.9047 88.121 29.026 87.7397 29.026ZM77.0537 29.026C76.6724 29.026 76.3517 28.9047 76.0917 28.662C75.849 28.402 75.7277 28.0813 75.7277 27.7V16.104C75.7277 15.7053 75.849 15.3847 76.0917 15.142C76.3517 14.8993 76.6724 14.778 77.0537 14.778C77.4524 14.778 77.773 14.8993 78.0157 15.142C78.2584 15.3847 78.3797 15.7053 78.3797 16.104V27.7C78.3797 28.0813 78.2584 28.402 78.0157 28.662C77.773 28.9047 77.4524 29.026 77.0537 29.026ZM99.8984 29.104C98.4944 29.104 97.255 28.8007 96.1804 28.194C95.1057 27.57 94.2564 26.7207 93.6324 25.646C93.0257 24.554 92.7224 23.306 92.7224 21.902C92.7224 20.4807 93.0257 19.2327 93.6324 18.158C94.2564 17.066 95.1057 16.2167 96.1804 15.61C97.255 14.986 98.4944 14.674 99.8984 14.674C101.285 14.674 102.516 14.986 103.59 15.61C104.665 16.2167 105.506 17.066 106.112 18.158C106.736 19.2327 107.048 20.4807 107.048 21.902C107.048 23.306 106.745 24.554 106.138 25.646C105.532 26.7207 104.691 27.57 103.616 28.194C102.542 28.8007 101.302 29.104 99.8984 29.104ZM99.8984 26.764C100.8 26.764 101.597 26.556 102.29 26.14C102.984 25.724 103.521 25.152 103.902 24.424C104.301 23.696 104.5 22.8553 104.5 21.902C104.5 20.9487 104.301 20.108 103.902 19.38C103.521 18.6347 102.984 18.054 102.29 17.638C101.597 17.222 100.8 17.014 99.8984 17.014C98.997 17.014 98.1997 17.222 97.5064 17.638C96.813 18.054 96.267 18.6347 95.8684 19.38C95.4697 20.108 95.2704 20.9487 95.2704 21.902C95.2704 22.8553 95.4697 23.696 95.8684 24.424C96.267 25.152 96.813 25.724 97.5064 26.14C98.1997 26.556 98.997 26.764 99.8984 26.764ZM117.443 29.104C116.091 29.104 114.869 28.792 113.777 28.168C112.703 27.5267 111.845 26.66 111.203 25.568C110.579 24.476 110.267 23.2453 110.267 21.876C110.267 20.5067 110.553 19.2847 111.125 18.21C111.715 17.118 112.512 16.26 113.517 15.636C114.523 14.9947 115.658 14.674 116.923 14.674C117.946 14.674 118.891 14.8907 119.757 15.324C120.624 15.74 121.352 16.312 121.941 17.04V10.02C121.941 9.62133 122.063 9.30067 122.305 9.058C122.565 8.81533 122.886 8.694 123.267 8.694C123.666 8.694 123.987 8.81533 124.229 9.058C124.472 9.30067 124.593 9.62133 124.593 10.02V21.876C124.593 23.2453 124.273 24.476 123.631 25.568C123.007 26.66 122.158 27.5267 121.083 28.168C120.009 28.792 118.795 29.104 117.443 29.104ZM117.443 26.764C118.327 26.764 119.116 26.556 119.809 26.14C120.503 25.7067 121.049 25.1173 121.447 24.372C121.846 23.6267 122.045 22.7947 122.045 21.876C122.045 20.94 121.846 20.108 121.447 19.38C121.049 18.652 120.503 18.08 119.809 17.664C119.116 17.2307 118.327 17.014 117.443 17.014C116.577 17.014 115.788 17.2307 115.077 17.664C114.384 18.08 113.829 18.652 113.413 19.38C113.015 20.108 112.815 20.94 112.815 21.876C112.815 22.7947 113.015 23.6267 113.413 24.372C113.829 25.1173 114.384 25.7067 115.077 26.14C115.788 26.556 116.577 26.764 117.443 26.764ZM130.863 29C130.481 29 130.161 28.8787 129.901 28.636C129.658 28.376 129.537 28.0553 129.537 27.674V16.104C129.537 15.7053 129.658 15.3847 129.901 15.142C130.161 14.8993 130.481 14.778 130.863 14.778C131.261 14.778 131.582 14.8993 131.825 15.142C132.067 15.3847 132.189 15.7053 132.189 16.104V27.674C132.189 28.0553 132.067 28.376 131.825 28.636C131.582 28.8787 131.261 29 130.863 29ZM130.863 12.464C130.395 12.464 129.987 12.2993 129.641 11.97C129.311 11.6233 129.147 11.216 129.147 10.748C129.147 10.28 129.311 9.88133 129.641 9.552C129.987 9.20533 130.395 9.032 130.863 9.032C131.331 9.032 131.729 9.20533 132.059 9.552C132.405 9.88133 132.579 10.28 132.579 10.748C132.579 11.216 132.405 11.6233 132.059 11.97C131.729 12.2993 131.331 12.464 130.863 12.464ZM143.57 29.104C142.184 29.104 140.944 28.792 139.852 28.168C138.778 27.5267 137.928 26.6687 137.304 25.594C136.698 24.502 136.394 23.2713 136.394 21.902C136.394 20.498 136.698 19.25 137.304 18.158C137.911 17.066 138.743 16.2167 139.8 15.61C140.858 14.986 142.071 14.674 143.44 14.674C144.463 14.674 145.399 14.8733 146.248 15.272C147.098 15.6533 147.86 16.234 148.536 17.014C148.779 17.2913 148.866 17.5773 148.796 17.872C148.727 18.1667 148.536 18.4267 148.224 18.652C147.982 18.8253 147.713 18.886 147.418 18.834C147.124 18.7647 146.855 18.6087 146.612 18.366C145.763 17.4647 144.706 17.014 143.44 17.014C142.556 17.014 141.776 17.222 141.1 17.638C140.424 18.0367 139.896 18.6 139.514 19.328C139.133 20.056 138.942 20.914 138.942 21.902C138.942 22.838 139.133 23.67 139.514 24.398C139.913 25.126 140.459 25.7067 141.152 26.14C141.846 26.556 142.652 26.764 143.57 26.764C144.177 26.764 144.706 26.6947 145.156 26.556C145.624 26.4 146.049 26.166 146.43 25.854C146.708 25.6287 146.994 25.5073 147.288 25.49C147.583 25.4553 147.843 25.5333 148.068 25.724C148.363 25.9667 148.528 26.244 148.562 26.556C148.597 26.8507 148.493 27.1193 148.25 27.362C147.002 28.5233 145.442 29.104 143.57 29.104ZM158.665 29.104C157.4 29.104 156.265 28.792 155.259 28.168C154.254 27.5267 153.457 26.6687 152.867 25.594C152.295 24.502 152.009 23.2713 152.009 21.902C152.009 20.5327 152.321 19.302 152.945 18.21C153.587 17.118 154.445 16.26 155.519 15.636C156.611 14.9947 157.833 14.674 159.185 14.674C160.537 14.674 161.751 14.9947 162.825 15.636C163.9 16.26 164.749 17.118 165.373 18.21C166.015 19.302 166.335 20.5327 166.335 21.902H165.321C165.321 23.2713 165.027 24.502 164.437 25.594C163.865 26.6687 163.077 27.5267 162.071 28.168C161.066 28.792 159.931 29.104 158.665 29.104ZM159.185 26.764C160.069 26.764 160.858 26.556 161.551 26.14C162.245 25.7067 162.791 25.126 163.189 24.398C163.588 23.6527 163.787 22.8207 163.787 21.902C163.787 20.966 163.588 20.134 163.189 19.406C162.791 18.6607 162.245 18.08 161.551 17.664C160.858 17.2307 160.069 17.014 159.185 17.014C158.319 17.014 157.53 17.2307 156.819 17.664C156.126 18.08 155.571 18.6607 155.155 19.406C154.757 20.134 154.557 20.966 154.557 21.902C154.557 22.8207 154.757 23.6527 155.155 24.398C155.571 25.126 156.126 25.7067 156.819 26.14C157.53 26.556 158.319 26.764 159.185 26.764ZM165.009 29.026C164.628 29.026 164.307 28.9047 164.047 28.662C163.805 28.402 163.683 28.0813 163.683 27.7V23.722L164.177 20.966L166.335 21.902V27.7C166.335 28.0813 166.205 28.402 165.945 28.662C165.703 28.9047 165.391 29.026 165.009 29.026Z" fill="black"/>
<rect width="44" height="18" transform="translate(46.6982 40.4998)" fill="#ECEEFE"/>
<path d="M55.6982 46.4998C54.9071 46.4998 54.1338 46.7344 53.476 47.1739C52.8182 47.6134 52.3055 48.2381 52.0027 48.969C51.7 49.6999 51.6208 50.5042 51.7751 51.2801C51.9294 52.056 52.3104 52.7688 52.8698 53.3282C53.4292 53.8876 54.142 54.2686 54.9179 54.4229C55.6938 54.5772 56.4981 54.498 57.229 54.1953C57.9599 53.8925 58.5846 53.3798 59.0241 52.722C59.4636 52.0642 59.6982 51.2909 59.6982 50.4998C59.6982 49.4389 59.2768 48.4215 58.5267 47.6713C57.7765 46.9212 56.7591 46.4998 55.6982 46.4998ZM55.6982 52.8998C55.2236 52.8998 54.7596 52.759 54.3649 52.4953C53.9702 52.2316 53.6626 51.8567 53.4809 51.4182C53.2993 50.9797 53.2518 50.4971 53.3444 50.0315C53.437 49.566 53.6655 49.1383 54.0012 48.8027C54.3368 48.4671 54.7645 48.2385 55.23 48.1459C55.6956 48.0533 56.1781 48.1008 56.6167 48.2824C57.0552 48.4641 57.4301 48.7717 57.6938 49.1664C57.9575 49.5611 58.0982 50.0251 58.0982 50.4998C58.0982 51.1363 57.8454 51.7467 57.3953 52.1968C56.9452 52.6469 56.3348 52.8998 55.6982 52.8998Z" fill="#714B67"/>
<path d="M66.9982 44.4998C66.8126 44.4998 66.6345 44.5808 66.5033 44.7251C66.372 44.8693 66.2982 45.065 66.2982 45.269V47.5767C65.6677 47.057 64.8961 46.7864 64.1082 46.8087C63.3203 46.831 62.5623 47.1449 61.957 47.6995C61.3516 48.2541 60.9343 49.017 60.7727 49.8647C60.611 50.7124 60.7144 51.5952 61.0662 52.3702C61.418 53.1453 61.9975 53.7671 62.7109 54.1352C63.4243 54.5032 64.2299 54.5959 64.9973 54.3982C65.7646 54.2005 66.4488 53.7239 66.9389 53.0457C67.4291 52.3675 67.6967 51.5274 67.6982 50.6613V45.269C67.6982 45.065 67.6245 44.8693 67.4932 44.7251C67.3619 44.5808 67.1839 44.4998 66.9982 44.4998ZM64.1982 52.9613C63.7829 52.9613 63.3769 52.8259 63.0315 52.5724C62.6862 52.3188 62.417 51.9584 62.2581 51.5367C62.0991 51.115 62.0576 50.651 62.1386 50.2034C62.2196 49.7557 62.4196 49.3445 62.7133 49.0218C63.007 48.6991 63.3812 48.4793 63.7886 48.3902C64.1959 48.3012 64.6182 48.3469 65.0019 48.5216C65.3856 48.6962 65.7136 48.992 65.9443 49.3715C66.1751 49.751 66.2982 50.1972 66.2982 50.6536C66.2982 51.2656 66.077 51.8526 65.6832 52.2854C65.2893 52.7182 64.7552 52.9613 64.1982 52.9613Z" fill="#8F8F8F"/>
<path d="M72.6982 46.4998C71.9071 46.4998 71.1338 46.7344 70.476 47.1739C69.8182 47.6134 69.3055 48.2381 69.0027 48.969C68.7 49.6999 68.6208 50.5042 68.7751 51.2801C68.9294 52.056 69.3104 52.7688 69.8698 53.3282C70.4292 53.8876 71.142 54.2686 71.9179 54.4229C72.6938 54.5772 73.4981 54.498 74.229 54.1953C74.9599 53.8925 75.5846 53.3798 76.0241 52.722C76.4636 52.0642 76.6982 51.2909 76.6982 50.4998C76.6982 49.9745 76.5948 49.4543 76.3938 48.969C76.1927 48.4837 75.8981 48.0428 75.5267 47.6713C75.1552 47.2999 74.7143 47.0053 74.229 46.8042C73.7437 46.6032 73.2235 46.4998 72.6982 46.4998ZM72.6982 52.8998C72.2236 52.8998 71.7596 52.759 71.3649 52.4953C70.9702 52.2316 70.6626 51.8567 70.4809 51.4182C70.2993 50.9797 70.2518 50.4971 70.3444 50.0315C70.437 49.566 70.6655 49.1383 71.0012 48.8027C71.3368 48.4671 71.7645 48.2385 72.23 48.1459C72.6956 48.0533 73.1781 48.1008 73.6167 48.2824C74.0552 48.4641 74.4301 48.7717 74.6938 49.1664C74.9575 49.5611 75.0982 50.0251 75.0982 50.4998C75.0982 51.1363 74.8454 51.7467 74.3953 52.1968C73.9452 52.6469 73.3348 52.8998 72.6982 52.8998Z" fill="#8F8F8F"/>
<path d="M81.6982 46.4998C80.9071 46.4998 80.1338 46.7344 79.476 47.1739C78.8182 47.6134 78.3055 48.2381 78.0027 48.969C77.7 49.6999 77.6208 50.5042 77.7751 51.2801C77.9294 52.056 78.3104 52.7688 78.8698 53.3282C79.4292 53.8876 80.142 54.2686 80.9179 54.4229C81.6938 54.5772 82.4981 54.498 83.229 54.1953C83.9599 53.8925 84.5846 53.3798 85.0241 52.722C85.4636 52.0642 85.6982 51.2909 85.6982 50.4998C85.6982 49.4389 85.2768 48.4215 84.5267 47.6713C83.7765 46.9212 82.7591 46.4998 81.6982 46.4998ZM81.6982 52.8998C81.2236 52.8998 80.7596 52.759 80.3649 52.4953C79.9702 52.2316 79.6626 51.8567 79.4809 51.4182C79.2993 50.9797 79.2518 50.4971 79.3444 50.0315C79.437 49.566 79.6655 49.1383 80.0012 48.8027C80.3368 48.4671 80.7645 48.2385 81.23 48.1459C81.6956 48.0533 82.1781 48.1008 82.6167 48.2824C83.0552 48.4641 83.4301 48.7717 83.6938 49.1664C83.9575 49.5611 84.0982 50.0251 84.0982 50.4998C84.0982 51.1363 83.8454 51.7467 83.3953 52.1968C82.9452 52.6469 82.3348 52.8998 81.6982 52.8998Z" fill="#8F8F8F"/>
<rect width="72.7734" height="17.9999" transform="translate(95.6982 40.4998)" fill="#5B899E"/>
<path d="M105.107 46.9412C105.083 46.9896 105.05 47.0333 105.01 47.0699C104.978 47.1021 104.946 47.1021 104.882 47.1021C104.845 47.0998 104.809 47.09 104.775 47.0734C104.742 47.0569 104.713 47.0338 104.689 47.0056C104.597 46.9338 104.5 46.8693 104.399 46.8125C104.254 46.7365 104.103 46.6719 103.949 46.6194C103.752 46.5509 103.545 46.5182 103.337 46.5228C103.129 46.5209 102.923 46.5535 102.726 46.6194C102.565 46.6858 102.414 46.7723 102.275 46.8768C102.154 46.9781 102.065 47.1122 102.018 47.263C101.952 47.4039 101.919 47.558 101.921 47.7136C101.915 47.8985 101.972 48.08 102.082 48.2285C102.191 48.3781 102.335 48.4995 102.5 48.5825C102.681 48.6934 102.876 48.7799 103.08 48.8399C103.305 48.9043 103.53 49.0008 103.755 49.0652C103.986 49.1368 104.212 49.2228 104.431 49.3226C104.639 49.414 104.834 49.5331 105.01 49.6766C105.184 49.8298 105.327 50.0157 105.429 50.2237C105.538 50.4778 105.593 50.7518 105.59 51.0283C105.586 51.3459 105.532 51.661 105.429 51.9615C105.306 52.2411 105.144 52.5013 104.946 52.7339C104.722 52.9667 104.447 53.1431 104.142 53.2488C103.803 53.3806 103.443 53.4461 103.08 53.4419C102.617 53.4404 102.159 53.3531 101.728 53.1844C101.349 53.0053 101.001 52.7663 100.698 52.4764L100.988 51.9937L101.084 51.8972C101.122 51.8716 101.168 51.8602 101.213 51.865C101.312 51.8731 101.405 51.9192 101.471 51.9937C101.567 52.0581 101.696 52.1546 101.825 52.2512C101.982 52.3622 102.156 52.449 102.339 52.5086C102.578 52.5909 102.828 52.6344 103.08 52.6373C103.298 52.6418 103.516 52.6092 103.723 52.5408C103.905 52.4834 104.07 52.3842 104.206 52.2512C104.338 52.1274 104.438 51.9725 104.496 51.8006C104.564 51.6154 104.597 51.4188 104.592 51.2214C104.595 51.0307 104.542 50.8435 104.439 50.6831C104.336 50.5227 104.188 50.3965 104.013 50.3203C103.832 50.2094 103.637 50.1228 103.434 50.0628C103.204 50.0023 102.978 49.927 102.758 49.8375C102.527 49.7659 102.302 49.6799 102.082 49.5801C101.874 49.4887 101.679 49.3697 101.503 49.2261C101.338 49.0526 101.197 48.8577 101.084 48.6468C100.976 48.3814 100.921 48.0969 100.924 47.8101C100.93 47.5451 100.985 47.2835 101.084 47.0377C101.188 46.7742 101.349 46.5366 101.554 46.342C101.76 46.1473 102.006 46.0003 102.275 45.9114C102.593 45.7879 102.933 45.733 103.273 45.7505C103.667 45.7465 104.059 45.8118 104.431 45.9436C104.771 46.0667 105.079 46.2647 105.332 46.5228L105.107 46.9412Z" fill="white"/>
<path d="M107.906 46.2974C107.9 46.3863 107.878 46.4735 107.842 46.5548C107.799 46.6373 107.745 46.7132 107.681 46.7801C107.618 46.8414 107.54 46.8857 107.456 46.9088C107.376 46.9511 107.288 46.9732 107.198 46.9732C107.108 46.9732 107.02 46.9511 106.941 46.9088C106.876 46.8767 106.78 46.8123 106.716 46.7801C106.654 46.7107 106.6 46.6352 106.555 46.5548C106.512 46.4756 106.49 46.3872 106.49 46.2974C106.49 46.2076 106.512 46.1192 106.555 46.0399C106.589 45.9529 106.644 45.8756 106.716 45.8147C106.778 45.7534 106.856 45.7091 106.941 45.6859C107.02 45.6437 107.108 45.6216 107.198 45.6216C107.288 45.6216 107.376 45.6437 107.456 45.6859C107.52 45.7181 107.617 45.7825 107.681 45.8147C107.742 45.8841 107.796 45.9596 107.842 46.0399C107.896 46.1139 107.92 46.2064 107.906 46.2974ZM107.713 47.9708V53.313H106.78V47.9708H107.713Z" fill="white"/>
<path d="M110.418 45.5571V53.3129H109.484V45.5571H110.418Z" fill="white"/>
<path d="M111.381 47.9705H112.153C112.222 47.9771 112.288 47.9991 112.346 48.0348C112.372 48.0469 112.394 48.0649 112.41 48.0873C112.427 48.1098 112.438 48.1359 112.443 48.1635L113.794 51.607C113.852 51.7305 113.895 51.86 113.923 51.9932C113.96 52.1188 113.982 52.2485 113.988 52.3793L114.084 51.9932C114.112 51.86 114.156 51.7305 114.213 51.607L115.597 48.1635C115.621 48.1151 115.653 48.0715 115.693 48.0348C115.737 47.9944 115.794 47.9716 115.854 47.9705H116.594L114.406 53.3126H113.569L111.381 47.9705Z" fill="white"/>
<path d="M119.427 47.8745C119.734 47.8782 120.038 47.9326 120.328 48.0354C120.592 48.1351 120.833 48.2885 121.036 48.486C121.241 48.6949 121.395 48.9482 121.486 49.2261C121.594 49.5587 121.649 49.9063 121.647 50.2559C121.647 50.4169 121.647 50.5134 121.615 50.5456C121.561 50.5911 121.492 50.6141 121.422 50.6099H117.882C117.886 50.904 117.929 51.1962 118.011 51.4788C118.082 51.7064 118.203 51.9152 118.365 52.0903C118.514 52.2465 118.688 52.377 118.88 52.4765C119.092 52.5714 119.323 52.6155 119.555 52.6052C119.763 52.6098 119.97 52.5771 120.167 52.5087C120.314 52.4459 120.464 52.3921 120.617 52.3477C120.721 52.2877 120.829 52.2339 120.939 52.1868C121.003 52.1334 121.082 52.0998 121.164 52.0903C121.201 52.0926 121.238 52.1024 121.271 52.119C121.304 52.1356 121.333 52.1586 121.357 52.1868L121.615 52.5408C121.491 52.6757 121.35 52.7946 121.197 52.8948C121.035 52.9996 120.862 53.086 120.682 53.1523C120.493 53.2208 120.299 53.2746 120.102 53.3132C119.911 53.3505 119.718 53.3721 119.523 53.3776C119.171 53.3789 118.821 53.3134 118.493 53.1845C118.19 53.0595 117.917 52.8732 117.689 52.6374C117.444 52.3855 117.267 52.0754 117.174 51.7363C117.04 51.3428 116.974 50.9291 116.981 50.5134C116.982 50.164 117.036 49.8167 117.142 49.4836C117.257 49.1805 117.42 48.8979 117.625 48.6469C117.846 48.4187 118.108 48.2333 118.397 48.0998C118.721 47.9538 119.071 47.8771 119.427 47.8745ZM119.459 48.5825C119.265 48.5717 119.071 48.6003 118.888 48.6667C118.706 48.7331 118.539 48.8358 118.397 48.9687C118.117 49.2687 117.947 49.6542 117.914 50.0629H120.81C120.812 49.8551 120.78 49.6485 120.714 49.4514C120.655 49.2777 120.568 49.1147 120.456 48.9687C120.331 48.844 120.191 48.7358 120.038 48.6469C119.848 48.606 119.654 48.5844 119.459 48.5825Z" fill="white"/>
<path d="M122.84 53.3132V47.9711H123.387C123.466 47.973 123.544 47.9952 123.612 48.0354C123.658 48.0891 123.681 48.1583 123.677 48.2285L123.741 49.0652C123.896 48.7272 124.127 48.4298 124.417 48.1963C124.685 47.9907 125.012 47.8778 125.35 47.8745C125.481 47.8747 125.612 47.8964 125.736 47.9389C125.848 47.9677 125.957 48.011 126.058 48.0676L125.929 48.7756C125.897 48.8721 125.865 48.9043 125.768 48.9043C125.691 48.8896 125.616 48.8681 125.543 48.84C125.408 48.7979 125.267 48.7762 125.125 48.7756C124.829 48.7623 124.54 48.8664 124.32 49.0652C124.063 49.2872 123.873 49.5772 123.773 49.902V53.3132H122.84Z" fill="white"/>
<path d="M129.129 50.4205V53.3661H128.058V45.4998H130.367C130.808 45.4973 131.247 45.5536 131.673 45.6672C132.013 45.752 132.325 45.9252 132.576 46.1693C132.82 46.3736 133.005 46.6394 133.112 46.9392C133.347 47.5903 133.335 48.3047 133.079 48.9476C132.959 49.2496 132.763 49.515 132.51 49.7175C132.253 49.955 131.943 50.1272 131.606 50.2196C131.195 50.3494 130.764 50.4061 130.334 50.387L129.129 50.4205ZM129.129 49.5836H130.401C130.675 49.5939 130.948 49.5483 131.204 49.4497C131.419 49.3874 131.614 49.2723 131.773 49.115C131.932 48.9774 132.058 48.8058 132.141 48.6129C132.221 48.3982 132.266 48.1722 132.275 47.9434C132.286 47.7259 132.25 47.5085 132.169 47.3063C132.088 47.1041 131.965 46.9218 131.807 46.7718C131.407 46.4596 130.907 46.3048 130.401 46.3367H129.129V49.5836Z" fill="white"/>
<path d="M138.302 53.3658H137.867C137.787 53.3737 137.707 53.3622 137.632 53.3323C137.598 53.3126 137.569 53.283 137.552 53.2472C137.534 53.2114 137.527 53.1711 137.532 53.1315L137.432 52.6294C137.298 52.7633 137.13 52.8637 136.997 52.9976C136.859 53.0988 136.714 53.1884 136.561 53.2654C136.403 53.3461 136.234 53.4025 136.059 53.4327C135.872 53.4735 135.682 53.4959 135.49 53.4997C135.285 53.499 135.082 53.4651 134.888 53.3993C134.707 53.3376 134.537 53.2472 134.386 53.1315C134.248 52.9958 134.135 52.8372 134.051 52.6628C133.968 52.4491 133.923 52.2226 133.917 51.9934C133.921 51.771 133.978 51.5529 134.084 51.3574C134.232 51.1385 134.426 50.9555 134.653 50.8218C134.987 50.6315 135.348 50.4959 135.725 50.4201C136.252 50.304 136.791 50.2478 137.331 50.2527V49.8176C137.354 49.473 137.26 49.1308 137.063 48.8468C136.963 48.7344 136.839 48.6459 136.7 48.5879C136.561 48.53 136.411 48.5041 136.26 48.5121C136.055 48.5071 135.85 48.5412 135.658 48.6125C135.49 48.6795 135.356 48.7464 135.222 48.8134C135.112 48.8643 135.011 48.932 134.921 49.0142C134.845 49.0762 134.751 49.1115 134.653 49.1146C134.591 49.1135 134.532 49.0897 134.486 49.0477C134.453 49.0142 134.386 48.9807 134.352 48.9138L134.185 48.6125C134.762 48.036 135.544 47.7112 136.361 47.7087C136.648 47.7092 136.932 47.766 137.197 47.8761C137.43 47.9701 137.637 48.1195 137.8 48.3113C137.98 48.4975 138.107 48.7287 138.168 48.9807C138.267 49.26 138.312 49.5551 138.302 49.851V53.3658ZM135.791 52.7633C135.95 52.7598 136.107 52.7373 136.26 52.6963C136.394 52.6628 136.528 52.5959 136.662 52.5624C136.792 52.4964 136.915 52.4179 137.03 52.3281C137.13 52.2277 137.264 52.1273 137.365 52.0268V50.8887C136.983 50.8828 136.601 50.9164 136.227 50.9892C135.962 51.0375 135.704 51.1161 135.457 51.2235C135.287 51.2984 135.138 51.4133 135.022 51.5582C134.927 51.6832 134.88 51.8371 134.888 51.9934C134.891 52.1188 134.913 52.2431 134.955 52.3616C134.99 52.4705 135.061 52.5646 135.155 52.6294C135.194 52.6706 135.241 52.7037 135.293 52.7267C135.344 52.7497 135.4 52.7621 135.457 52.7633H135.791Z" fill="white"/>
<path d="M139.775 53.3658V47.8092H140.344C140.427 47.8112 140.508 47.8342 140.579 47.8761C140.626 47.932 140.65 48.0039 140.646 48.077L140.713 48.9473C140.874 48.5957 141.115 48.2863 141.416 48.0435C141.694 47.8296 142.035 47.7121 142.386 47.7087C142.523 47.7089 142.659 47.7315 142.788 47.7757C142.905 47.8057 143.017 47.8507 143.123 47.9096L142.989 48.646C142.955 48.7464 142.922 48.7799 142.821 48.7799C142.741 48.7689 142.662 48.7464 142.587 48.7129C142.446 48.6692 142.3 48.6466 142.152 48.646C141.844 48.6322 141.543 48.7404 141.315 48.9473C141.047 49.1781 140.85 49.4798 140.746 49.8176V53.3658H139.775Z" fill="white"/>
<path d="M145.898 53.4663C145.714 53.4757 145.531 53.4479 145.358 53.3846C145.186 53.3214 145.028 53.2239 144.894 53.0981C144.765 52.9525 144.666 52.783 144.603 52.5992C144.54 52.4154 144.514 52.221 144.526 52.027V48.6127H143.856C143.83 48.6122 143.805 48.6059 143.782 48.5943C143.758 48.5828 143.738 48.5661 143.722 48.5457C143.68 48.5 143.656 48.4405 143.655 48.3784V47.9767L144.559 47.8763L144.793 46.1691C144.794 46.1432 144.8 46.1178 144.812 46.0946C144.823 46.0714 144.84 46.0511 144.86 46.0352C144.906 45.9932 144.966 45.9694 145.028 45.9683H145.53V47.8763H147.136V48.5792H145.53V51.9266C145.523 52.1189 145.582 52.3077 145.697 52.4621C145.816 52.571 145.971 52.6308 146.132 52.6295C146.223 52.6366 146.314 52.6253 146.4 52.596L146.601 52.4956C146.651 52.4706 146.697 52.4365 146.735 52.3952C146.748 52.3825 146.764 52.373 146.781 52.3672C146.799 52.3614 146.817 52.3595 146.835 52.3617C146.864 52.3664 146.891 52.378 146.914 52.3955C146.938 52.413 146.957 52.4358 146.969 52.4621L147.27 52.9308C147.095 53.0916 146.891 53.2167 146.668 53.299C146.423 53.399 146.162 53.4556 145.898 53.4663Z" fill="white"/>
<path d="M148.31 53.3656V47.8089H148.879C148.94 47.8044 149.001 47.8222 149.05 47.8591C149.099 47.896 149.134 47.9496 149.146 48.0098L149.213 48.6123C149.442 48.3548 149.714 48.1395 150.017 47.9763C150.336 47.8089 150.694 47.7282 151.054 47.742C151.328 47.7318 151.602 47.7773 151.858 47.8759C152.086 47.9619 152.284 48.1133 152.427 48.3111C152.588 48.5105 152.713 48.7372 152.795 48.9805C152.877 49.2636 152.922 49.5561 152.929 49.8508V53.399H151.958V49.8508C151.982 49.501 151.875 49.1548 151.657 48.8801C151.548 48.7607 151.412 48.6683 151.261 48.6102C151.11 48.5521 150.948 48.5299 150.787 48.5454C150.506 48.5402 150.229 48.6095 149.983 48.7462C149.725 48.9047 149.489 49.096 149.28 49.3153V53.399L148.31 53.3656Z" fill="white"/>
<path d="M156.578 47.7086C156.897 47.7125 157.214 47.769 157.515 47.876C157.79 47.9796 158.041 48.1392 158.251 48.3446C158.464 48.562 158.625 48.8254 158.72 49.1145C158.832 49.4604 158.889 49.822 158.887 50.1856C158.884 50.2868 158.873 50.3876 158.854 50.4869C158.798 50.5342 158.726 50.5582 158.653 50.5538H154.971C154.975 50.8597 155.02 51.1637 155.105 51.4576C155.174 51.6966 155.3 51.915 155.473 52.0936C155.628 52.2561 155.809 52.3918 156.009 52.4953C156.229 52.594 156.47 52.6399 156.712 52.6292C156.928 52.634 157.143 52.6 157.347 52.5288C157.5 52.4635 157.657 52.4076 157.816 52.3614C157.924 52.2989 158.036 52.243 158.151 52.194C158.217 52.1384 158.299 52.1035 158.385 52.0936C158.424 52.0961 158.461 52.1062 158.496 52.1234C158.53 52.1407 158.561 52.1647 158.586 52.194L158.854 52.5623C158.725 52.7025 158.578 52.8262 158.419 52.9305C158.251 53.0395 158.071 53.1293 157.883 53.1983C157.687 53.2695 157.485 53.3255 157.281 53.3656C157.082 53.4045 156.88 53.4269 156.678 53.4326C156.311 53.4339 155.948 53.3658 155.607 53.2317C155.292 53.1017 155.007 52.908 154.77 52.6627C154.515 52.4006 154.331 52.0781 154.235 51.7254C154.095 51.3161 154.027 50.8858 154.034 50.4534C154.035 50.09 154.091 49.7288 154.201 49.3823C154.32 49.067 154.49 48.7731 154.703 48.5119C154.934 48.2747 155.206 48.0818 155.506 47.9429C155.839 47.7791 156.207 47.6986 156.578 47.7086ZM156.611 48.445C156.409 48.4337 156.207 48.4635 156.018 48.5326C155.828 48.6016 155.654 48.7085 155.506 48.8467C155.216 49.1587 155.039 49.5597 155.004 49.9848H158.017C158.019 49.7687 157.985 49.5538 157.917 49.3488C157.855 49.1681 157.764 48.9986 157.649 48.8467C157.519 48.717 157.372 48.6045 157.214 48.5119C157.016 48.4694 156.814 48.447 156.611 48.445Z" fill="white"/>
<path d="M160.124 53.3658V47.8092H160.693C160.776 47.8112 160.856 47.8342 160.927 47.8761C160.975 47.932 160.999 48.0039 160.994 48.077L161.061 48.9473C161.223 48.5957 161.463 48.2863 161.764 48.0435C162.043 47.8296 162.384 47.7121 162.735 47.7087C162.872 47.7089 163.007 47.7315 163.137 47.7757C163.253 47.8057 163.366 47.8507 163.471 47.9096L163.337 48.646C163.304 48.7464 163.27 48.7799 163.17 48.7799C163.089 48.7689 163.01 48.7464 162.936 48.7129C162.795 48.6692 162.648 48.6466 162.501 48.646C162.193 48.6322 161.892 48.7404 161.664 48.9473C161.396 49.1781 161.199 49.4798 161.095 49.8176V53.3658H160.124Z" fill="white"/>
</svg>
