<svg width="169" height="58" viewBox="0 0 169 58" fill="none" xmlns="http://www.w3.org/2000/svg">
<path d="M8.06544 8.37481C5.80712 10.6332 1.74751 9.31579 0 8.37481L12.9047 0.712545C14.1952 -0.577942 15.5932 0.174842 16.1309 0.712545L30.973 9.69606C31.2724 9.87723 31.4552 10.2017 31.4552 10.5516V22.4895C31.4552 24.7479 28.4979 24.5059 27.0192 24.1026L10.8489 14.3251C10.2697 13.9749 10.1984 13.1625 10.7078 12.7168L12.3564 11.2742C12.6832 10.9883 13.1571 10.9459 13.5294 11.1693L27.0192 19.2633V12.0043L14.1145 4.74532L8.06544 8.37481Z" fill="white"/>
<path d="M23.3896 31.6252C25.648 29.3668 29.7076 30.6842 31.4551 31.6252L18.5504 39.2875C17.2599 40.5779 15.8619 39.8252 15.3242 39.2875L0.48205 30.3039C0.182724 30.1228 -0.000143051 29.7983 -0.000143051 29.4484V17.5105C-0.000143051 15.2521 2.95719 15.4941 4.43585 15.8974L20.6062 25.6749C21.1854 26.0251 21.2566 26.8375 20.7473 27.2832L19.0987 28.7258C18.7719 29.0117 18.298 29.0541 17.9256 28.8307L4.43585 20.7367V27.9957L17.3406 35.2547L23.3896 31.6252Z" fill="white"/>
<path d="M50.5031 28.76C49.3937 28.76 48.3364 28.5867 47.3311 28.24C46.3257 27.8933 45.4504 27.408 44.7051 26.784C43.9597 26.16 43.4137 25.4407 43.0671 24.626C42.8937 24.262 42.8937 23.924 43.0671 23.612C43.2577 23.3 43.5697 23.1007 44.0031 23.014C44.3151 22.9447 44.6184 22.9967 44.9131 23.17C45.2251 23.326 45.4591 23.5687 45.6151 23.898C45.8231 24.3313 46.1611 24.73 46.6291 25.094C47.1144 25.458 47.6951 25.7527 48.3711 25.978C49.0471 26.2033 49.7577 26.316 50.5031 26.316C51.3351 26.316 52.0977 26.186 52.7911 25.926C53.5017 25.666 54.0737 25.2933 54.5071 24.808C54.9404 24.3053 55.1571 23.69 55.1571 22.962C55.1571 22.0433 54.7931 21.22 54.0651 20.492C53.3544 19.764 52.1757 19.3133 50.5291 19.14C48.3797 18.932 46.6897 18.2993 45.4591 17.242C44.2284 16.1847 43.6131 14.876 43.6131 13.316C43.6131 12.172 43.9337 11.2013 44.5751 10.404C45.2164 9.60667 46.0831 9 47.1751 8.584C48.2844 8.168 49.5151 7.96 50.8671 7.96C51.9244 7.96 52.8431 8.10733 53.6231 8.402C54.4204 8.69667 55.1137 9.104 55.7031 9.624C56.2924 10.144 56.8037 10.7593 57.2371 11.47C57.4797 11.8513 57.5751 12.2153 57.5231 12.562C57.4884 12.8913 57.3237 13.1513 57.0291 13.342C56.6997 13.55 56.3444 13.5933 55.9631 13.472C55.5817 13.3507 55.2957 13.1253 55.1051 12.796C54.8277 12.2933 54.4897 11.8687 54.0911 11.522C53.6924 11.1753 53.2244 10.9067 52.6871 10.716C52.1497 10.508 51.5171 10.404 50.7891 10.404C49.5064 10.3867 48.4317 10.6293 47.5651 11.132C46.6984 11.6173 46.2651 12.3713 46.2651 13.394C46.2651 13.914 46.3951 14.4167 46.6551 14.902C46.9324 15.37 47.4264 15.7773 48.1371 16.124C48.8651 16.4707 49.9051 16.7133 51.2571 16.852C53.3197 17.06 54.9231 17.6927 56.0671 18.75C57.2284 19.79 57.8091 21.168 57.8091 22.884C57.8091 23.872 57.6011 24.73 57.1851 25.458C56.7864 26.186 56.2404 26.8013 55.5471 27.304C54.8711 27.7893 54.0911 28.1533 53.2071 28.396C52.3404 28.6387 51.4391 28.76 50.5031 28.76ZM64.2435 34.74C64.0701 34.74 63.8621 34.688 63.6195 34.584C62.8568 34.2373 62.6488 33.6913 62.9955 32.946L70.9255 15.032C71.2721 14.304 71.8181 14.096 72.5635 14.408C73.3435 14.7373 73.5601 15.2833 73.2135 16.046L65.2575 33.934C65.0495 34.4713 64.7115 34.74 64.2435 34.74ZM67.3115 27.928C66.9821 28.0667 66.6701 28.084 66.3755 27.98C66.0981 27.8587 65.8728 27.6333 65.6995 27.304L59.7455 15.994C59.5721 15.6647 59.5461 15.3527 59.6675 15.058C59.8061 14.746 60.0401 14.5207 60.3695 14.382C60.6988 14.2433 61.0108 14.2347 61.3055 14.356C61.6001 14.46 61.8255 14.6767 61.9815 15.006L67.6755 26.316C67.8488 26.6453 67.9095 26.966 67.8575 27.278C67.8228 27.5727 67.6408 27.7893 67.3115 27.928ZM87.7231 28.526C87.3418 28.526 87.0211 28.4047 86.7611 28.162C86.5184 27.902 86.3971 27.5813 86.3971 27.2V20.804C86.3971 19.816 86.2151 19.01 85.8511 18.386C85.4871 17.762 84.9931 17.3027 84.3691 17.008C83.7624 16.696 83.0604 16.54 82.2631 16.54C81.5351 16.54 80.8764 16.6873 80.2871 16.982C79.6978 17.2767 79.2298 17.6753 78.8831 18.178C78.5364 18.6633 78.3631 19.2267 78.3631 19.868H76.7251C76.7251 18.776 76.9851 17.8053 77.5051 16.956C78.0424 16.0893 78.7704 15.4047 79.6891 14.902C80.6078 14.3993 81.6391 14.148 82.7831 14.148C83.9791 14.148 85.0451 14.408 85.9811 14.928C86.9344 15.4307 87.6798 16.176 88.2171 17.164C88.7718 18.152 89.0491 19.3653 89.0491 20.804V27.2C89.0491 27.5813 88.9191 27.902 88.6591 28.162C88.4164 28.4047 88.1044 28.526 87.7231 28.526ZM77.0371 28.526C76.6558 28.526 76.3351 28.4047 76.0751 28.162C75.8324 27.902 75.7111 27.5813 75.7111 27.2V15.604C75.7111 15.2053 75.8324 14.8847 76.0751 14.642C76.3351 14.3993 76.6558 14.278 77.0371 14.278C77.4358 14.278 77.7564 14.3993 77.9991 14.642C78.2418 14.8847 78.3631 15.2053 78.3631 15.604V27.2C78.3631 27.5813 78.2418 27.902 77.9991 28.162C77.7564 28.4047 77.4358 28.526 77.0371 28.526ZM99.8818 28.604C98.4778 28.604 97.2384 28.3007 96.1638 27.694C95.0891 27.07 94.2398 26.2207 93.6158 25.146C93.0091 24.054 92.7058 22.806 92.7058 21.402C92.7058 19.9807 93.0091 18.7327 93.6158 17.658C94.2398 16.566 95.0891 15.7167 96.1638 15.11C97.2384 14.486 98.4778 14.174 99.8818 14.174C101.268 14.174 102.499 14.486 103.574 15.11C104.648 15.7167 105.489 16.566 106.096 17.658C106.72 18.7327 107.032 19.9807 107.032 21.402C107.032 22.806 106.728 24.054 106.122 25.146C105.515 26.2207 104.674 27.07 103.6 27.694C102.525 28.3007 101.286 28.604 99.8818 28.604ZM99.8818 26.264C100.783 26.264 101.58 26.056 102.274 25.64C102.967 25.224 103.504 24.652 103.886 23.924C104.284 23.196 104.484 22.3553 104.484 21.402C104.484 20.4487 104.284 19.608 103.886 18.88C103.504 18.1347 102.967 17.554 102.274 17.138C101.58 16.722 100.783 16.514 99.8818 16.514C98.9804 16.514 98.1831 16.722 97.4898 17.138C96.7964 17.554 96.2504 18.1347 95.8518 18.88C95.4531 19.608 95.2538 20.4487 95.2538 21.402C95.2538 22.3553 95.4531 23.196 95.8518 23.924C96.2504 24.652 96.7964 25.224 97.4898 25.64C98.1831 26.056 98.9804 26.264 99.8818 26.264ZM117.427 28.604C116.075 28.604 114.853 28.292 113.761 27.668C112.686 27.0267 111.828 26.16 111.187 25.068C110.563 23.976 110.251 22.7453 110.251 21.376C110.251 20.0067 110.537 18.7847 111.109 17.71C111.698 16.618 112.495 15.76 113.501 15.136C114.506 14.4947 115.641 14.174 116.907 14.174C117.929 14.174 118.874 14.3907 119.741 14.824C120.607 15.24 121.335 15.812 121.925 16.54V9.52C121.925 9.12133 122.046 8.80067 122.289 8.558C122.549 8.31533 122.869 8.194 123.251 8.194C123.649 8.194 123.97 8.31533 124.213 8.558C124.455 8.80067 124.577 9.12133 124.577 9.52V21.376C124.577 22.7453 124.256 23.976 123.615 25.068C122.991 26.16 122.141 27.0267 121.067 27.668C119.992 28.292 118.779 28.604 117.427 28.604ZM117.427 26.264C118.311 26.264 119.099 26.056 119.793 25.64C120.486 25.2067 121.032 24.6173 121.431 23.872C121.829 23.1267 122.029 22.2947 122.029 21.376C122.029 20.44 121.829 19.608 121.431 18.88C121.032 18.152 120.486 17.58 119.793 17.164C119.099 16.7307 118.311 16.514 117.427 16.514C116.56 16.514 115.771 16.7307 115.061 17.164C114.367 17.58 113.813 18.152 113.397 18.88C112.998 19.608 112.799 20.44 112.799 21.376C112.799 22.2947 112.998 23.1267 113.397 23.872C113.813 24.6173 114.367 25.2067 115.061 25.64C115.771 26.056 116.56 26.264 117.427 26.264ZM130.846 28.5C130.465 28.5 130.144 28.3787 129.884 28.136C129.641 27.876 129.52 27.5553 129.52 27.174V15.604C129.52 15.2053 129.641 14.8847 129.884 14.642C130.144 14.3993 130.465 14.278 130.846 14.278C131.245 14.278 131.565 14.3993 131.808 14.642C132.051 14.8847 132.172 15.2053 132.172 15.604V27.174C132.172 27.5553 132.051 27.876 131.808 28.136C131.565 28.3787 131.245 28.5 130.846 28.5ZM130.846 11.964C130.378 11.964 129.971 11.7993 129.624 11.47C129.295 11.1233 129.13 10.716 129.13 10.248C129.13 9.78 129.295 9.38133 129.624 9.052C129.971 8.70533 130.378 8.532 130.846 8.532C131.314 8.532 131.713 8.70533 132.042 9.052C132.389 9.38133 132.562 9.78 132.562 10.248C132.562 10.716 132.389 11.1233 132.042 11.47C131.713 11.7993 131.314 11.964 130.846 11.964ZM143.554 28.604C142.167 28.604 140.928 28.292 139.836 27.668C138.761 27.0267 137.912 26.1687 137.288 25.094C136.681 24.002 136.378 22.7713 136.378 21.402C136.378 19.998 136.681 18.75 137.288 17.658C137.894 16.566 138.726 15.7167 139.784 15.11C140.841 14.486 142.054 14.174 143.424 14.174C144.446 14.174 145.382 14.3733 146.232 14.772C147.081 15.1533 147.844 15.734 148.52 16.514C148.762 16.7913 148.849 17.0773 148.78 17.372C148.71 17.6667 148.52 17.9267 148.208 18.152C147.965 18.3253 147.696 18.386 147.402 18.334C147.107 18.2647 146.838 18.1087 146.596 17.866C145.746 16.9647 144.689 16.514 143.424 16.514C142.54 16.514 141.76 16.722 141.084 17.138C140.408 17.5367 139.879 18.1 139.498 18.828C139.116 19.556 138.926 20.414 138.926 21.402C138.926 22.338 139.116 23.17 139.498 23.898C139.896 24.626 140.442 25.2067 141.136 25.64C141.829 26.056 142.635 26.264 143.554 26.264C144.16 26.264 144.689 26.1947 145.14 26.056C145.608 25.9 146.032 25.666 146.414 25.354C146.691 25.1287 146.977 25.0073 147.272 24.99C147.566 24.9553 147.826 25.0333 148.052 25.224C148.346 25.4667 148.511 25.744 148.546 26.056C148.58 26.3507 148.476 26.6193 148.234 26.862C146.986 28.0233 145.426 28.604 143.554 28.604ZM158.649 28.604C157.384 28.604 156.248 28.292 155.243 27.668C154.238 27.0267 153.44 26.1687 152.851 25.094C152.279 24.002 151.993 22.7713 151.993 21.402C151.993 20.0327 152.305 18.802 152.929 17.71C153.57 16.618 154.428 15.76 155.503 15.136C156.595 14.4947 157.817 14.174 159.169 14.174C160.521 14.174 161.734 14.4947 162.809 15.136C163.884 15.76 164.733 16.618 165.357 17.71C165.998 18.802 166.319 20.0327 166.319 21.402H165.305C165.305 22.7713 165.01 24.002 164.421 25.094C163.849 26.1687 163.06 27.0267 162.055 27.668C161.05 28.292 159.914 28.604 158.649 28.604ZM159.169 26.264C160.053 26.264 160.842 26.056 161.535 25.64C162.228 25.2067 162.774 24.626 163.173 23.898C163.572 23.1527 163.771 22.3207 163.771 21.402C163.771 20.466 163.572 19.634 163.173 18.906C162.774 18.1607 162.228 17.58 161.535 17.164C160.842 16.7307 160.053 16.514 159.169 16.514C158.302 16.514 157.514 16.7307 156.803 17.164C156.11 17.58 155.555 18.1607 155.139 18.906C154.74 19.634 154.541 20.466 154.541 21.402C154.541 22.3207 154.74 23.1527 155.139 23.898C155.555 24.626 156.11 25.2067 156.803 25.64C157.514 26.056 158.302 26.264 159.169 26.264ZM164.993 28.526C164.612 28.526 164.291 28.4047 164.031 28.162C163.788 27.902 163.667 27.5813 163.667 27.2V23.222L164.161 20.466L166.319 21.402V27.2C166.319 27.5813 166.189 27.902 165.929 28.162C165.686 28.4047 165.374 28.526 164.993 28.526Z" fill="white"/>
<rect width="44" height="18" transform="translate(46.6816 40)" fill="white"/>
<path d="M55.6816 46C54.8905 46 54.1172 46.2346 53.4594 46.6741C52.8016 47.1136 52.2889 47.7384 51.9861 48.4693C51.6834 49.2002 51.6042 50.0044 51.7585 50.7804C51.9128 51.5563 52.2938 52.269 52.8532 52.8284C53.4126 53.3878 54.1254 53.7688 54.9013 53.9231C55.6772 54.0775 56.4815 53.9983 57.2124 53.6955C57.9433 53.3928 58.568 52.8801 59.0075 52.2223C59.447 51.5645 59.6816 50.7911 59.6816 50C59.6816 48.9391 59.2602 47.9217 58.5101 47.1716C57.7599 46.4214 56.7425 46 55.6816 46ZM55.6816 52.4C55.207 52.4 54.743 52.2592 54.3483 51.9955C53.9536 51.7318 53.646 51.357 53.4643 50.9184C53.2827 50.4799 53.2352 49.9973 53.3278 49.5318C53.4204 49.0662 53.6489 48.6386 53.9846 48.3029C54.3202 47.9673 54.7479 47.7387 55.2134 47.6461C55.679 47.5535 56.1615 47.601 56.6001 47.7827C57.0386 47.9643 57.4135 48.272 57.6772 48.6666C57.9409 49.0613 58.0816 49.5253 58.0816 50C58.0816 50.6365 57.8288 51.247 57.3787 51.6971C56.9286 52.1471 56.3182 52.4 55.6816 52.4Z" fill="#714B67"/>
<path d="M66.9816 44C66.796 44 66.6179 44.081 66.4867 44.2253C66.3554 44.3696 66.2816 44.5652 66.2816 44.7692V47.0769C65.6511 46.5573 64.8795 46.2867 64.0916 46.309C63.3037 46.3313 62.5457 46.6451 61.9404 47.1997C61.335 47.7543 60.9177 48.5172 60.7561 49.3649C60.5944 50.2126 60.6978 51.0954 61.0496 51.8705C61.4014 52.6455 61.9809 53.2674 62.6943 53.6354C63.4077 54.0035 64.2133 54.0962 64.9807 53.8984C65.748 53.7007 66.4322 53.2242 66.9223 52.546C67.4125 51.8678 67.6801 51.0276 67.6816 50.1615V44.7692C67.6816 44.5652 67.6079 44.3696 67.4766 44.2253C67.3453 44.081 67.1673 44 66.9816 44ZM64.1816 52.4615C63.7663 52.4615 63.3603 52.3262 63.0149 52.0726C62.6696 51.819 62.4004 51.4586 62.2415 51.037C62.0825 50.6153 62.041 50.1513 62.122 49.7036C62.203 49.256 62.403 48.8448 62.6967 48.5221C62.9904 48.1993 63.3646 47.9795 63.7719 47.8905C64.1793 47.8014 64.6015 47.8471 64.9853 48.0218C65.369 48.1965 65.697 48.4923 65.9277 48.8718C66.1585 49.2513 66.2816 49.6974 66.2816 50.1538C66.2816 50.7659 66.0604 51.3528 65.6666 51.7856C65.2727 52.2184 64.7386 52.4615 64.1816 52.4615Z" fill="#8F8F8F"/>
<path d="M72.6816 46C71.8905 46 71.1172 46.2346 70.4594 46.6741C69.8016 47.1136 69.2889 47.7384 68.9861 48.4693C68.6834 49.2002 68.6042 50.0044 68.7585 50.7804C68.9128 51.5563 69.2938 52.269 69.8532 52.8284C70.4126 53.3878 71.1254 53.7688 71.9013 53.9231C72.6772 54.0775 73.4815 53.9983 74.2124 53.6955C74.9433 53.3928 75.568 52.8801 76.0075 52.2223C76.447 51.5645 76.6816 50.7911 76.6816 50C76.6816 49.4747 76.5782 48.9546 76.3772 48.4693C76.1761 47.984 75.8815 47.543 75.5101 47.1716C75.1386 46.8001 74.6977 46.5055 74.2124 46.3045C73.7271 46.1035 73.2069 46 72.6816 46ZM72.6816 52.4C72.207 52.4 71.743 52.2592 71.3483 51.9955C70.9536 51.7318 70.646 51.357 70.4643 50.9184C70.2827 50.4799 70.2352 49.9973 70.3278 49.5318C70.4204 49.0662 70.6489 48.6386 70.9846 48.3029C71.3202 47.9673 71.7479 47.7387 72.2134 47.6461C72.679 47.5535 73.1615 47.601 73.6001 47.7827C74.0386 47.9643 74.4135 48.272 74.6772 48.6666C74.9409 49.0613 75.0816 49.5253 75.0816 50C75.0816 50.6365 74.8288 51.247 74.3787 51.6971C73.9286 52.1471 73.3182 52.4 72.6816 52.4Z" fill="#8F8F8F"/>
<path d="M81.6816 46C80.8905 46 80.1172 46.2346 79.4594 46.6741C78.8016 47.1136 78.2889 47.7384 77.9861 48.4693C77.6834 49.2002 77.6042 50.0044 77.7585 50.7804C77.9128 51.5563 78.2938 52.269 78.8532 52.8284C79.4126 53.3878 80.1254 53.7688 80.9013 53.9231C81.6772 54.0775 82.4815 53.9983 83.2124 53.6955C83.9433 53.3928 84.568 52.8801 85.0075 52.2223C85.447 51.5645 85.6816 50.7911 85.6816 50C85.6816 48.9391 85.2602 47.9217 84.5101 47.1716C83.7599 46.4214 82.7425 46 81.6816 46ZM81.6816 52.4C81.207 52.4 80.743 52.2592 80.3483 51.9955C79.9536 51.7318 79.646 51.357 79.4643 50.9184C79.2827 50.4799 79.2352 49.9973 79.3278 49.5318C79.4204 49.0662 79.6489 48.6386 79.9846 48.3029C80.3202 47.9673 80.7479 47.7387 81.2134 47.6461C81.679 47.5535 82.1615 47.601 82.6001 47.7827C83.0386 47.9643 83.4135 48.272 83.6772 48.6666C83.9409 49.0613 84.0816 49.5253 84.0816 50C84.0816 50.6365 83.8288 51.247 83.3787 51.6971C82.9286 52.1471 82.3182 52.4 81.6816 52.4Z" fill="#8F8F8F"/>
<rect width="72.7734" height="17.9999" transform="translate(95.6816 40)" fill="#5B899E"/>
<path d="M105.09 46.4414C105.066 46.4899 105.034 46.5335 104.994 46.5702C104.962 46.6024 104.93 46.6024 104.865 46.6024C104.828 46.6 104.792 46.5903 104.759 46.5737C104.726 46.5571 104.696 46.534 104.672 46.5058C104.581 46.4341 104.484 46.3695 104.382 46.3127C104.238 46.2367 104.087 46.1721 103.932 46.1196C103.735 46.0512 103.528 46.0185 103.32 46.0231C103.113 46.0211 102.906 46.0538 102.709 46.1196C102.549 46.1861 102.397 46.2726 102.258 46.3771C102.137 46.4784 102.048 46.6124 102.001 46.7633C101.935 46.9042 101.902 47.0582 101.905 47.2138C101.898 47.3987 101.955 47.5802 102.065 47.7287C102.175 47.8784 102.318 47.9998 102.484 48.0827C102.665 48.1936 102.859 48.2802 103.063 48.3402C103.288 48.4045 103.514 48.5011 103.739 48.5654C103.969 48.6371 104.195 48.7231 104.415 48.8229C104.623 48.9142 104.818 49.0333 104.994 49.1769C105.168 49.3301 105.31 49.516 105.412 49.724C105.521 49.9781 105.576 50.2521 105.573 50.5285C105.569 50.8462 105.515 51.1612 105.412 51.4618C105.29 51.7414 105.127 52.0016 104.93 52.2341C104.706 52.4669 104.43 52.6434 104.125 52.749C103.787 52.8808 103.426 52.9464 103.063 52.9421C102.6 52.9406 102.142 52.8534 101.711 52.6847C101.332 52.5056 100.985 52.2665 100.682 51.9767L100.971 51.494L101.068 51.3974C101.106 51.3718 101.151 51.3604 101.197 51.3652C101.296 51.3734 101.388 51.4195 101.454 51.494C101.551 51.5583 101.679 51.6549 101.808 51.7514C101.966 51.8625 102.139 51.9493 102.323 52.0089C102.561 52.0911 102.811 52.1346 103.063 52.1376C103.281 52.1421 103.499 52.1094 103.707 52.041C103.888 51.9837 104.053 51.8845 104.189 51.7514C104.322 51.6276 104.421 51.4728 104.479 51.3009C104.548 51.1156 104.58 50.9191 104.576 50.7216C104.579 50.531 104.525 50.3437 104.422 50.1833C104.319 50.023 104.171 49.8967 103.996 49.8205C103.815 49.7096 103.621 49.623 103.417 49.5631C103.187 49.5025 102.961 49.4273 102.741 49.3378C102.511 49.2661 102.285 49.1801 102.065 49.0803C101.857 48.989 101.662 48.8699 101.486 48.7263C101.321 48.5528 101.181 48.358 101.068 48.1471C100.959 47.8817 100.904 47.5972 100.907 47.3104C100.914 47.0453 100.968 46.7837 101.068 46.538C101.172 46.2744 101.332 46.0369 101.538 45.8422C101.743 45.6475 101.99 45.5005 102.258 45.4116C102.576 45.2881 102.916 45.2333 103.256 45.2507C103.651 45.2467 104.043 45.3121 104.415 45.4438C104.755 45.567 105.062 45.7649 105.316 46.0231L105.09 46.4414Z" fill="white"/>
<path d="M107.89 45.7976C107.883 45.8866 107.862 45.9737 107.825 46.0551C107.783 46.1375 107.729 46.2134 107.664 46.2804C107.601 46.3417 107.524 46.386 107.439 46.4091C107.36 46.4513 107.271 46.4735 107.182 46.4735C107.092 46.4735 107.003 46.4513 106.924 46.4091C106.86 46.3769 106.763 46.3125 106.699 46.2804C106.638 46.2109 106.584 46.1355 106.538 46.0551C106.496 45.9759 106.474 45.8874 106.474 45.7976C106.474 45.7078 106.496 45.6194 106.538 45.5402C106.573 45.4531 106.628 45.3758 106.699 45.3149C106.762 45.2536 106.839 45.2093 106.924 45.1862C107.003 45.1439 107.092 45.1218 107.182 45.1218C107.271 45.1218 107.36 45.1439 107.439 45.1862C107.503 45.2184 107.6 45.2827 107.664 45.3149C107.725 45.3843 107.779 45.4598 107.825 45.5402C107.88 45.6141 107.903 45.7067 107.89 45.7976ZM107.697 47.4711V52.8132H106.763V47.4711H107.697Z" fill="white"/>
<path d="M110.401 45.0574V52.8131H109.468V45.0574H110.401Z" fill="white"/>
<path d="M111.364 47.4707H112.137C112.205 47.4774 112.271 47.4994 112.33 47.5351C112.355 47.5471 112.377 47.5652 112.394 47.5876C112.411 47.61 112.422 47.6361 112.426 47.6638L113.778 51.1072C113.835 51.2307 113.878 51.3603 113.907 51.4934C113.944 51.619 113.965 51.7487 113.971 51.8796L114.067 51.4934C114.096 51.3603 114.139 51.2307 114.196 51.1072L115.58 47.6638C115.604 47.6154 115.637 47.5717 115.676 47.5351C115.72 47.4947 115.778 47.4718 115.837 47.4707H116.578L114.389 52.8128H113.553L111.364 47.4707Z" fill="white"/>
<path d="M119.41 47.3748C119.717 47.3785 120.022 47.4328 120.311 47.5357C120.576 47.6353 120.817 47.7887 121.019 47.9862C121.224 48.1952 121.378 48.4484 121.47 48.7264C121.578 49.0589 121.632 49.4066 121.631 49.7562C121.631 49.9171 121.631 50.0136 121.598 50.0458C121.545 50.0913 121.475 50.1144 121.405 50.1102H117.865C117.869 50.4043 117.913 50.6965 117.994 50.9791C118.065 51.2066 118.186 51.4155 118.348 51.5905C118.497 51.7467 118.671 51.8772 118.863 51.9767C119.075 52.0716 119.307 52.1157 119.539 52.1054C119.747 52.11 119.954 52.0773 120.15 52.0089C120.297 51.9461 120.447 51.8924 120.601 51.848C120.705 51.7879 120.812 51.7342 120.923 51.6871C120.987 51.6336 121.065 51.6001 121.148 51.5905C121.185 51.5929 121.221 51.6026 121.254 51.6192C121.287 51.6358 121.317 51.6589 121.341 51.6871L121.598 52.0411C121.474 52.1759 121.334 52.2948 121.18 52.3951C121.019 52.4999 120.846 52.5862 120.665 52.6525C120.476 52.721 120.283 52.7748 120.086 52.8134C119.895 52.8508 119.701 52.8723 119.507 52.8778C119.154 52.8791 118.805 52.8136 118.477 52.6847C118.174 52.5597 117.9 52.3735 117.672 52.1376C117.427 51.8857 117.25 51.5757 117.157 51.2365C117.023 50.8431 116.958 50.4294 116.964 50.0136C116.966 49.6642 117.02 49.317 117.125 48.9838C117.24 48.6807 117.403 48.3982 117.608 48.1471C117.83 47.919 118.091 47.7335 118.38 47.6C118.704 47.4541 119.055 47.3774 119.41 47.3748ZM119.442 48.0827C119.248 48.0719 119.054 48.1006 118.872 48.1669C118.689 48.2333 118.522 48.336 118.38 48.4689C118.101 48.7689 117.931 49.1544 117.898 49.5631H120.794C120.796 49.3553 120.763 49.1487 120.697 48.9517C120.638 48.7779 120.551 48.6149 120.44 48.4689C120.315 48.3442 120.174 48.2361 120.021 48.1471C119.831 48.1062 119.637 48.0847 119.442 48.0827Z" fill="white"/>
<path d="M122.823 52.8134V47.4713H123.37C123.45 47.4732 123.527 47.4954 123.596 47.5357C123.641 47.5894 123.664 47.6585 123.66 47.7288L123.724 48.5655C123.879 48.2275 124.111 47.93 124.4 47.6966C124.668 47.4909 124.996 47.378 125.333 47.3748C125.465 47.3749 125.595 47.3967 125.72 47.4391C125.832 47.468 125.94 47.5112 126.041 47.5678L125.913 48.2758C125.88 48.3724 125.848 48.4046 125.752 48.4046C125.675 48.3899 125.599 48.3683 125.526 48.3402C125.391 48.2981 125.25 48.2764 125.108 48.2758C124.812 48.2625 124.523 48.3666 124.304 48.5655C124.046 48.7874 123.857 49.0774 123.756 49.4022V52.8134H122.823Z" fill="white"/>
<path d="M129.112 49.9207V52.8664H128.041V45.0001H130.351C130.791 44.9975 131.23 45.0538 131.656 45.1675C131.996 45.2522 132.308 45.4254 132.56 45.6696C132.804 45.8738 132.989 46.1396 133.095 46.4394C133.33 47.0905 133.318 47.805 133.062 48.4479C132.943 48.7498 132.747 49.0152 132.493 49.2178C132.236 49.4552 131.926 49.6274 131.589 49.7199C131.178 49.8497 130.748 49.9063 130.317 49.8872L129.112 49.9207ZM129.112 49.0839H130.384C130.658 49.0941 130.932 49.0485 131.187 48.95C131.402 48.8876 131.598 48.7726 131.757 48.6152C131.915 48.4776 132.041 48.306 132.125 48.1131C132.204 47.8985 132.25 47.6725 132.259 47.4437C132.27 47.2261 132.233 47.0088 132.153 46.8066C132.072 46.6043 131.948 46.422 131.79 46.2721C131.39 45.9599 130.89 45.8051 130.384 45.8369H129.112V49.0839Z" fill="white"/>
<path d="M138.285 52.866H137.85C137.771 52.874 137.69 52.8625 137.616 52.8326C137.581 52.8129 137.553 52.7833 137.535 52.7475C137.517 52.7117 137.51 52.6714 137.515 52.6317L137.415 52.1296C137.281 52.2635 137.114 52.3639 136.98 52.4978C136.843 52.5991 136.697 52.6886 136.545 52.7656C136.387 52.8463 136.217 52.9028 136.043 52.933C135.856 52.9737 135.665 52.9961 135.474 52.9999C135.269 52.9993 135.065 52.9653 134.871 52.8995C134.69 52.8378 134.521 52.7474 134.369 52.6317C134.231 52.496 134.118 52.3375 134.034 52.1631C133.951 51.9493 133.906 51.7228 133.9 51.4936C133.904 51.2712 133.962 51.0531 134.068 50.8576C134.215 50.6388 134.409 50.4558 134.637 50.322C134.97 50.1317 135.332 49.9961 135.708 49.9203C136.235 49.8042 136.774 49.7481 137.315 49.753V49.3178C137.338 48.9733 137.243 48.6311 137.047 48.3471C136.947 48.2346 136.822 48.1461 136.683 48.0882C136.544 48.0302 136.394 48.0043 136.243 48.0123C136.038 48.0073 135.834 48.0414 135.641 48.1128C135.474 48.1797 135.34 48.2467 135.206 48.3136C135.096 48.3645 134.994 48.4323 134.905 48.5145C134.829 48.5765 134.735 48.6118 134.637 48.6149C134.575 48.6137 134.515 48.5899 134.469 48.5479C134.436 48.5145 134.369 48.481 134.336 48.414L134.168 48.1128C134.746 47.5363 135.528 47.2114 136.344 47.209C136.631 47.2094 136.915 47.2663 137.181 47.3764C137.414 47.4704 137.621 47.6197 137.783 47.8115C137.964 47.9977 138.091 48.2289 138.151 48.481C138.25 48.7602 138.295 49.0554 138.285 49.3513V52.866ZM135.775 52.2635C135.933 52.2601 136.091 52.2376 136.243 52.1965C136.377 52.1631 136.511 52.0961 136.645 52.0627C136.775 51.9967 136.899 51.9182 137.013 51.8283C137.114 51.7279 137.248 51.6275 137.348 51.5271V50.389C136.966 50.383 136.585 50.4167 136.21 50.4894C135.945 50.5377 135.687 50.6164 135.44 50.7237C135.27 50.7987 135.121 50.9135 135.005 51.0584C134.911 51.1834 134.864 51.3374 134.871 51.4936C134.874 51.6191 134.897 51.7433 134.938 51.8618C134.974 51.9707 135.044 52.0648 135.139 52.1296C135.178 52.1709 135.224 52.204 135.276 52.2269C135.328 52.2499 135.384 52.2624 135.44 52.2635H135.775Z" fill="white"/>
<path d="M139.759 52.866V47.3094H140.328C140.41 47.3114 140.491 47.3345 140.562 47.3764C140.609 47.4322 140.633 47.5041 140.629 47.5772L140.696 48.4475C140.857 48.0959 141.098 47.7866 141.399 47.5437C141.678 47.3298 142.018 47.2124 142.37 47.209C142.506 47.2092 142.642 47.2318 142.771 47.2759C142.888 47.3059 143.001 47.3509 143.106 47.4098L142.972 48.1462C142.939 48.2467 142.905 48.2801 142.805 48.2801C142.724 48.2692 142.645 48.2466 142.571 48.2132C142.43 48.1694 142.283 48.1468 142.135 48.1462C141.828 48.1324 141.527 48.2407 141.299 48.4475C141.031 48.6784 140.834 48.98 140.73 49.3178V52.866H139.759Z" fill="white"/>
<path d="M145.881 52.9666C145.698 52.9759 145.514 52.9482 145.342 52.8849C145.169 52.8216 145.011 52.7242 144.877 52.5984C144.748 52.4528 144.65 52.2832 144.587 52.0994C144.523 51.9156 144.497 51.7212 144.509 51.5272V48.1129H143.84C143.814 48.1124 143.788 48.1062 143.765 48.0946C143.742 48.083 143.722 48.0664 143.706 48.046C143.664 48.0002 143.64 47.9407 143.639 47.8786V47.4769L144.542 47.3765L144.777 45.6693C144.777 45.6435 144.784 45.618 144.795 45.5948C144.807 45.5717 144.823 45.5514 144.844 45.5355C144.889 45.4935 144.949 45.4696 145.011 45.4685H145.513V47.3765H147.12V48.0794H145.513V51.4268C145.507 51.6191 145.566 51.8079 145.681 51.9624C145.799 52.0712 145.955 52.1311 146.116 52.1297C146.206 52.1369 146.297 52.1255 146.383 52.0963L146.584 51.9959C146.635 51.9708 146.68 51.9368 146.718 51.8954C146.731 51.8828 146.747 51.8732 146.765 51.8674C146.782 51.8616 146.8 51.8598 146.819 51.862C146.847 51.8667 146.875 51.8783 146.898 51.8957C146.921 51.9132 146.94 51.9361 146.952 51.9624L147.254 52.431C147.079 52.5919 146.874 52.717 146.651 52.7992C146.406 52.8992 146.146 52.9558 145.881 52.9666Z" fill="white"/>
<path d="M148.293 52.8658V47.3092H148.862C148.923 47.3046 148.984 47.3224 149.034 47.3594C149.083 47.3963 149.117 47.4498 149.13 47.51L149.197 48.1126C149.425 47.855 149.697 47.6398 150 47.4766C150.32 47.3092 150.677 47.2284 151.038 47.2422C151.312 47.232 151.585 47.2776 151.841 47.3761C152.069 47.4621 152.267 47.6135 152.41 47.8113C152.572 48.0107 152.696 48.2375 152.778 48.4808C152.861 48.7638 152.906 49.0564 152.912 49.3511V52.8993H151.942V49.3511C151.966 49.0013 151.858 48.655 151.64 48.3803C151.531 48.2609 151.396 48.1685 151.245 48.1105C151.094 48.0524 150.931 48.0302 150.77 48.0456C150.489 48.0404 150.212 48.1097 149.967 48.2465C149.709 48.4049 149.472 48.5962 149.264 48.8155V52.8993L148.293 52.8658Z" fill="white"/>
<path d="M156.561 47.2088C156.881 47.2127 157.197 47.2693 157.498 47.3762C157.773 47.4799 158.024 47.6394 158.235 47.8448C158.448 48.0622 158.608 48.3256 158.703 48.6147C158.816 48.9606 158.872 49.3222 158.871 49.6859C158.868 49.787 158.857 49.8878 158.837 49.9871C158.781 50.0345 158.709 50.0584 158.636 50.0541H154.954C154.958 50.36 155.004 50.6639 155.088 50.9579C155.157 51.1969 155.283 51.4153 155.456 51.5939C155.612 51.7563 155.793 51.892 155.992 51.9956C156.213 52.0943 156.453 52.1401 156.695 52.1294C156.911 52.1342 157.127 52.1002 157.331 52.029C157.484 51.9637 157.64 51.9078 157.8 51.8617C157.908 51.7992 158.019 51.7433 158.134 51.6943C158.201 51.6387 158.282 51.6038 158.369 51.5939C158.407 51.5963 158.445 51.6064 158.479 51.6237C158.514 51.6409 158.544 51.6649 158.569 51.6943L158.837 52.0625C158.708 52.2028 158.562 52.3264 158.402 52.4307C158.234 52.5397 158.054 52.6295 157.866 52.6985C157.67 52.7697 157.469 52.8257 157.264 52.8659C157.065 52.9047 156.864 52.9271 156.661 52.9328C156.295 52.9342 155.931 52.866 155.59 52.732C155.275 52.602 154.99 52.4082 154.753 52.1629C154.498 51.9009 154.314 51.5784 154.218 51.2257C154.078 50.8164 154.01 50.3861 154.017 49.9537C154.018 49.5902 154.075 49.229 154.184 48.8825C154.304 48.5672 154.473 48.2733 154.687 48.0122C154.917 47.7749 155.189 47.582 155.49 47.4431C155.823 47.2793 156.19 47.1989 156.561 47.2088ZM156.594 47.9452C156.393 47.934 156.191 47.9638 156.001 48.0328C155.811 48.1019 155.637 48.2087 155.49 48.3469C155.199 48.659 155.022 49.06 154.988 49.485H158C158.002 49.2689 157.968 49.054 157.9 48.849C157.838 48.6683 157.748 48.4988 157.632 48.3469C157.502 48.2172 157.356 48.1047 157.197 48.0122C156.999 47.9697 156.797 47.9472 156.594 47.9452Z" fill="white"/>
<path d="M160.107 52.866V47.3094H160.676C160.759 47.3114 160.84 47.3345 160.911 47.3764C160.958 47.4322 160.982 47.5041 160.978 47.5772L161.045 48.4475C161.206 48.0959 161.447 47.7866 161.748 47.5437C162.026 47.3298 162.367 47.2124 162.718 47.209C162.855 47.2092 162.991 47.2318 163.12 47.2759C163.237 47.3059 163.349 47.3509 163.455 47.4098L163.321 48.1462C163.287 48.2467 163.254 48.2801 163.153 48.2801C163.073 48.2692 162.994 48.2466 162.919 48.2132C162.778 48.1694 162.632 48.1468 162.484 48.1462C162.176 48.1324 161.875 48.2407 161.647 48.4475C161.379 48.6784 161.182 48.98 161.078 49.3178V52.866H160.107Z" fill="white"/>
</svg>
