<svg width="37" height="36" viewBox="0 0 37 36" fill="none" xmlns="http://www.w3.org/2000/svg">
<mask id="mask0_36_667" style="mask-type:luminance" maskUnits="userSpaceOnUse" x="0" y="0" width="37" height="37">
<path d="M0.333984 0.000244141H36.334V36.0002H0.333984V0.000244141Z" fill="white"/>
</mask>
<g mask="url(#mask0_36_667)">
<path d="M19.0548 24.8402C19.0548 24.8402 18.4572 23.4002 18.3369 23.28C33.0984 16.1952 35.2699 20.7312 35.5737 22.5924C35.6227 22.8933 35.5773 23.1993 35.4844 23.4902C35.1443 24.5524 34.7056 25.5805 34.174 26.561C33.094 27.641 26.974 27.7202 26.974 27.7202L19.0548 24.8402Z" fill="#144496"/>
<path d="M15.454 10.0803L18.3368 12.7205C3.57541 19.8053 1.40389 15.2693 1.10005 13.4081C1.05109 13.1072 1.09645 12.8012 1.18933 12.5103C1.46706 11.6419 1.81078 10.7961 2.21749 9.9802C5.16733 4.06396 10.7747 7.92028 10.7747 7.92028L15.454 10.0803Z" fill="#1A6F66"/>
<path d="M1.18835 23.4902C1.09547 23.1994 1.05011 22.8934 1.09907 22.5924C1.40291 20.7305 3.57443 16.1945 18.3359 23.28C28.5577 28.1868 32.7431 27.5208 34.4509 26.029C31.4996 31.9394 25.3919 36.0002 18.3359 36.0002C10.3093 36.0002 3.50963 30.7464 1.18835 23.4902Z" fill="#2EBCFA"/>
<path d="M35.4833 12.5102C35.5761 12.8011 35.6215 13.1071 35.5725 13.4081C35.2687 15.27 33.0972 19.806 18.3357 12.7205C8.1139 7.81368 3.92854 8.47968 2.2207 9.97152C5.17198 4.06104 11.2797 0.000244141 18.3357 0.000244141C26.3616 0.000244141 33.1613 5.25408 35.4833 12.5102Z" fill="#1AD3BB"/>
</g>
</svg>
